<svg xmlns="http://www.w3.org/2000/svg" width="363.103" height="146.3" viewBox="0 0 363.103 146.3">
  <g id="Group_24" data-name="Group 24" transform="translate(-31.544 -396.803)">
    <g id="Group_20" data-name="Group 20">
      <g id="Group_19" data-name="Group 19">
        <path id="Path_73" data-name="Path 73" d="M94.1,533.761v.3l-.04.119-.485.289a.609.609,0,0,0-.209.167,3.4,3.4,0,0,0-.075.592c-.028.353-.045.784-.045,1.292a17.8,17.8,0,0,0,.11,1.876l-.059.1a15.486,15.486,0,0,1-5.583,1.042,9.234,9.234,0,0,1-3.977-.833,6.593,6.593,0,0,1-2.818-2.469,7.108,7.108,0,0,1-1.04-3.888,6.84,6.84,0,0,1,2.344-5.455,9.038,9.038,0,0,1,6.124-2.023,12.6,12.6,0,0,1,4.989.943l.07.108a23.352,23.352,0,0,0-.416,2.788l-.081.069h-.457l-.076-.081-.052-1.051a3.332,3.332,0,0,0-.064-.6.682.682,0,0,0-.212-.232,4.829,4.829,0,0,0-.918-.456,7.336,7.336,0,0,0-1.484-.457,8.376,8.376,0,0,0-1.6-.145,6.664,6.664,0,0,0-3.215.754,4.881,4.881,0,0,0-2.106,2.2,7.168,7.168,0,0,0-.71,3.208,7.667,7.667,0,0,0,.764,3.4,5.79,5.79,0,0,0,2.191,2.454,6.2,6.2,0,0,0,3.324.882,8.972,8.972,0,0,0,1.681-.163,4.9,4.9,0,0,0,1.412-.462,5.661,5.661,0,0,0,.09-1.279v-1.1a2.742,2.742,0,0,0-.1-.977.663.663,0,0,0-.49-.273,12.1,12.1,0,0,0-1.691-.1l-.088-.089v-.435l.088-.09.606.019q1.556.051,2.538.05.564,0,1.656-.059Z" fill="#fff"/>
        <path id="Path_74" data-name="Path 74" d="M95.225,532.332a8.733,8.733,0,0,1,.427-2.776,6.381,6.381,0,0,1,1.454-2.385,7.025,7.025,0,0,1,2.472-1.7,8.5,8.5,0,0,1,3.272-.6,7.655,7.655,0,0,1,5.387,1.839,6.481,6.481,0,0,1,2,5.023,8.215,8.215,0,0,1-.981,4.027,6.9,6.9,0,0,1-2.81,2.778,8.522,8.522,0,0,1-4.112.99,7.97,7.97,0,0,1-2.976-.541,6.076,6.076,0,0,1-2.316-1.61,6.62,6.62,0,0,1-1.388-2.481A8.855,8.855,0,0,1,95.225,532.332Zm2.064-.654a9.613,9.613,0,0,0,.39,2.6,6.832,6.832,0,0,0,1.171,2.389,4.993,4.993,0,0,0,1.795,1.481,5.71,5.71,0,0,0,5.054-.217,4.415,4.415,0,0,0,1.823-2.187,8.472,8.472,0,0,0,.626-3.327,8.846,8.846,0,0,0-.715-3.621,4.789,4.789,0,0,0-2.034-2.35,5.919,5.919,0,0,0-2.925-.733,4.908,4.908,0,0,0-3.8,1.508A6.369,6.369,0,0,0,97.289,531.678Z" fill="#fff"/>
        <path id="Path_75" data-name="Path 75" d="M111.084,525.223l.078-.072q2.46.081,2.837.081.337,0,2.845-.081l.081.072v.494l-.081.069c-.456.015-.806.034-1.054.06a1.309,1.309,0,0,0-.542.148.712.712,0,0,0-.223.511,8.845,8.845,0,0,0-.055,1.116l-.019,2.282v4.382q0,1.648.019,2.3l.05,1.715h2.024q2.421,0,3.019-.06a4.081,4.081,0,0,0,1.157-.286,8.613,8.613,0,0,0,.312-1.141c.135-.6.206-.938.212-1.032l.09-.08h.485l.071.08a14.277,14.277,0,0,0-.164,1.537c-.058.762-.085,1.376-.085,1.845l-.079.081q-1.885-.063-4.949-.062l-2.895-.019c-.662,0-1.338.026-2.024.081l-.078-.081v-.328l.078-.1a4.148,4.148,0,0,0,.674-.386,6.436,6.436,0,0,0,.125-1.28q.063-1.211.064-2.915V529.9l-.021-1.935q-.009-1.129-.053-1.457a.9.9,0,0,0-.139-.437.71.71,0,0,0-.362-.178,8.612,8.612,0,0,0-1.32-.11l-.078-.069Z" fill="#fff"/>
        <path id="Path_76" data-name="Path 76" d="M123.42,525.223l.079-.072q1.717.081,2.341.081l4.642-.1a11.884,11.884,0,0,1,3.253.37,5.622,5.622,0,0,1,2.257,1.29,6.145,6.145,0,0,1,1.5,2.133,6.633,6.633,0,0,1,.51,2.593,7.8,7.8,0,0,1-.466,2.647,7.633,7.633,0,0,1-1.323,2.347,7.24,7.24,0,0,1-1.953,1.67,7.038,7.038,0,0,1-2.2.847,11.757,11.757,0,0,1-2.252.216q-.772,0-2.916-.062-.7-.02-.933-.019c-.456,0-1.006.026-1.655.081l-.079-.081v-.328l.079-.1a5.129,5.129,0,0,0,.669-.37,7.752,7.752,0,0,0,.139-1.736q.057-1.664.055-2.535v-3.64l-.01-2.251q0-.734-.02-1.2a3.959,3.959,0,0,0-.068-.66.777.777,0,0,0-.116-.277.477.477,0,0,0-.207-.135,2.348,2.348,0,0,0-.49-.093l-.756-.06-.079-.069Zm3.67,12.941a12.233,12.233,0,0,0,2.331.2,7.565,7.565,0,0,0,3.694-.774,4.806,4.806,0,0,0,2.067-2.291,8.235,8.235,0,0,0,.685-3.421,6,6,0,0,0-1.5-4.355q-1.5-1.547-4.72-1.546a16.072,16.072,0,0,0-2.559.2q-.079,1.625-.08,3.668v3.115l.021,2.916C127.031,536.442,127.05,537.2,127.09,538.164Z" fill="#fff"/>
        <path id="Path_77" data-name="Path 77" d="M139.625,535.754l.08-.08h.486l.08.08a9.293,9.293,0,0,0,.132,1.552,1.279,1.279,0,0,0,.537.6,3.861,3.861,0,0,0,1.2.509,5.813,5.813,0,0,0,1.514.2,4.454,4.454,0,0,0,1.887-.386,2.96,2.96,0,0,0,1.306-1.135,3.117,3.117,0,0,0,.466-1.681,2.715,2.715,0,0,0-.224-1.142,1.935,1.935,0,0,0-.625-.777,2.822,2.822,0,0,0-.917-.438c-.343-.094-.856-.2-1.536-.311q-.993-.16-1.553-.288a5.18,5.18,0,0,1-1.116-.4,2.97,2.97,0,0,1-.927-.679,3.122,3.122,0,0,1-.6-1.012,3.665,3.665,0,0,1-.222-1.283,3.945,3.945,0,0,1,1.289-3.041,4.917,4.917,0,0,1,3.461-1.185,9.152,9.152,0,0,1,1.879.214,7.5,7.5,0,0,1,1.85.63l.069.119a13.667,13.667,0,0,0-.267,2.6l-.09.08h-.514l-.08-.071c-.013-.794-.032-1.292-.06-1.5s-.326-.46-.9-.761a3.934,3.934,0,0,0-1.875-.457,3.729,3.729,0,0,0-1.578.337,2.31,2.31,0,0,0-1.11,1.061,3.154,3.154,0,0,0-.377,1.477,2.271,2.271,0,0,0,.228,1.037,1.956,1.956,0,0,0,.59.714,2.541,2.541,0,0,0,.842.392c.322.086.908.191,1.762.317a10.543,10.543,0,0,1,2.553.6,2.853,2.853,0,0,1,1.279,1.116,3.392,3.392,0,0,1,.482,1.845,4.373,4.373,0,0,1-1.722,3.521,6.375,6.375,0,0,1-4.17,1.408,8.333,8.333,0,0,1-3.6-.733l-.059-.129A28.991,28.991,0,0,0,139.625,535.754Z" fill="#fff"/>
        <path id="Path_78" data-name="Path 78" d="M168.158,525.181l.089.08v.485l-.079.071a7.015,7.015,0,0,0-1.353.11.6.6,0,0,0-.372.262,1.646,1.646,0,0,0-.125.718q-.015.535-.055,3.025V534.5q0,.995.031,2.241a6.068,6.068,0,0,0,.124,1.453.584.584,0,0,0,.342.3,6.323,6.323,0,0,0,1.408.121l.079.072v.485l-.089.08q-1.617-.092-2.818-.09-.81,0-2.764.09l-.09-.08V538.7l.079-.081a7.143,7.143,0,0,0,1.354-.107.607.607,0,0,0,.37-.262,1.742,1.742,0,0,0,.13-.73q.02-.544.05-3.016v-7.278l-3.422,7.16q-1.29,2.688-2.252,5.058h-.386q-.555-1.279-.913-2.043l-4.74-9.849v6.933q0,.972.024,2.236a5.666,5.666,0,0,0,.126,1.463.613.613,0,0,0,.347.3,5.616,5.616,0,0,0,1.408.12l.078.08v.476l-.088.09-.635-.031c-.654-.034-1.217-.05-1.686-.05q-.318,0-2.369.081l-.081-.081v-.475l.081-.09a6.713,6.713,0,0,0,1.346-.1.622.622,0,0,0,.373-.267,1.572,1.572,0,0,0,.129-.7q.015-.516.045-3.045v-4.542c0-.6-.009-1.335-.026-2.2a6.248,6.248,0,0,0-.118-1.5.607.607,0,0,0-.341-.3,5.7,5.7,0,0,0-1.408-.119l-.081-.081v-.475l.09-.09q.686.049,1.844.051c.728,0,1.361-.018,1.9-.051q.831,1.923,1.6,3.481l3.76,7.716,3.391-7.071q1.377-2.868,1.854-4.126.951.049,1.874.051Q167.028,525.232,168.158,525.181Z" fill="#fff"/>
        <path id="Path_79" data-name="Path 79" d="M169.3,525.151l1.241.041c.813.027,1.344.04,1.6.04q.338,0,2.847-.081l.078.072v.494l-.078.069c-.457.015-.809.034-1.058.06a1.3,1.3,0,0,0-.54.148.7.7,0,0,0-.222.511,8.691,8.691,0,0,0-.054,1.116l-.02,2.282v4.591l.01,1.934a13.744,13.744,0,0,0,.058,1.448.944.944,0,0,0,.144.437.786.786,0,0,0,.362.184,8.1,8.1,0,0,0,1.32.112l.078.061v.495l-.078.081c-.034,0-.614-.021-1.746-.062q-.7-.02-1.1-.019-.306,0-2.837.081l-.079-.081v-.495l.079-.061a10.264,10.264,0,0,0,1.231-.1.921.921,0,0,0,.412-.155.769.769,0,0,0,.167-.4,9.3,9.3,0,0,0,.075-1.369l.01-2.093V529.9l-.021-1.935c-.007-.753-.024-1.239-.055-1.457a.865.865,0,0,0-.138-.437.7.7,0,0,0-.361-.178,8.6,8.6,0,0,0-1.32-.11l-.079-.069v-.494Z" fill="#fff"/>
        <path id="Path_80" data-name="Path 80" d="M187.526,525.151l.09.09q-.088.894-.09,3.114l-.079.079h-.466l-.078-.088-.11-.913a7.789,7.789,0,0,0-.125-.9.443.443,0,0,0-.142-.239,1.828,1.828,0,0,0-.646-.122q-.546-.051-1.218-.052h-1.875q-.081,2.242-.08,2.59v5.782l.019,1.934c.007.747.026,1.233.055,1.453a.876.876,0,0,0,.138.436.8.8,0,0,0,.363.18,8.171,8.171,0,0,0,1.328.112l.071.061v.495l-.071.081q-2.536-.082-2.836-.081-.316,0-2.825.081l-.081-.081v-.495l.081-.061a10.169,10.169,0,0,0,1.234-.1.891.891,0,0,0,.406-.155.78.78,0,0,0,.173-.4,7.857,7.857,0,0,0,.071-1.369l.019-2.093v-5.782q0-.157-.079-2.59H179.3q-.914,0-1.579.043c-.442.025-.7.093-.768.2a3.594,3.594,0,0,0-.192,1.066l-.1.913-.089.088h-.456l-.079-.079q-.02-2.389-.09-3.114l.09-.09q1.727.081,5.741.081Q185.869,525.232,187.526,525.151Z" fill="#fff"/>
        <path id="Path_81" data-name="Path 81" d="M188.587,525.151q2.532.081,2.837.081.329,0,2.847-.081l.079.072v.494l-.079.069c-.456.015-.809.034-1.058.06a1.308,1.308,0,0,0-.54.148.708.708,0,0,0-.222.511,8.691,8.691,0,0,0-.054,1.116l-.02,2.282v1.387q2.171.06,4.115.06,2.658,0,4.046-.06V529.9l-.019-1.935a13.957,13.957,0,0,0-.06-1.457,1,1,0,0,0-.138-.437.686.686,0,0,0-.357-.178,8.711,8.711,0,0,0-1.33-.11l-.068-.069v-.494l.068-.072q2.541.081,2.846.081.338,0,2.847-.081l.08.072v.494l-.08.069c-.463.015-.818.034-1.067.06a1.309,1.309,0,0,0-.541.148.7.7,0,0,0-.218.511,11.113,11.113,0,0,0-.058,1.116l-.019,2.282v4.591l.019,1.934a13.747,13.747,0,0,0,.058,1.448.954.954,0,0,0,.145.437.78.78,0,0,0,.356.184,8.079,8.079,0,0,0,1.325.112l.08.061v.495l-.08.081q-2.539-.082-2.847-.081t-2.846.081l-.068-.081v-.495l.068-.061a10.329,10.329,0,0,0,1.24-.1.852.852,0,0,0,.405-.155.818.818,0,0,0,.171-.4,8.271,8.271,0,0,0,.069-1.369l.019-2.093v-2.26q-2.934-.063-4.116-.061-1.209,0-4.045.061v2.26l.01,1.934a13.747,13.747,0,0,0,.058,1.448.956.956,0,0,0,.144.437.786.786,0,0,0,.362.184,8.1,8.1,0,0,0,1.32.112l.079.061v.495l-.079.081q-2.529-.082-2.847-.081t-2.837.081l-.079-.081v-.495l.079-.061a10.242,10.242,0,0,0,1.231-.1.921.921,0,0,0,.412-.155.769.769,0,0,0,.167-.4,9.4,9.4,0,0,0,.076-1.369l.009-2.093V529.9l-.021-1.935q-.009-1.129-.054-1.457a.894.894,0,0,0-.139-.437.7.7,0,0,0-.361-.178,8.6,8.6,0,0,0-1.32-.11l-.079-.069v-.494Z" fill="#fff"/>
        <path id="Path_82" data-name="Path 82" d="M225.173,538.173q-.8.567-1.666,1.28a3.26,3.26,0,0,1-.7.069,4.65,4.65,0,0,1-1.775-.366,7.692,7.692,0,0,1-1.893-1.19,8.512,8.512,0,0,1-2.2,1.268,5.988,5.988,0,0,1-1.9.3,3.89,3.89,0,0,1-3.08-1.206,4.049,4.049,0,0,1-1.068-2.761q0-2.658,3.116-4.334a6.806,6.806,0,0,1-.6-2.588,3.076,3.076,0,0,1,.133-.907,2.375,2.375,0,0,1,.3-.67,3.76,3.76,0,0,1,.585-.6c.278-.241.545-.469.8-.684a2.656,2.656,0,0,1,.737-.457,2.107,2.107,0,0,1,.759-.133,1.738,1.738,0,0,1,1.374.519,1.957,1.957,0,0,1,.461,1.344q0,2.073-2.886,4.038a16.417,16.417,0,0,0,1.885,2.835,14.5,14.5,0,0,0,2.222,2.331,3.54,3.54,0,0,0,1.011-2.43,2.812,2.812,0,0,0-.124-.891.9.9,0,0,0-.323-.492,1.417,1.417,0,0,0-.7-.124c-.357-.006-.711-.014-1.061-.021l-.089-.128.645-.942a12.125,12.125,0,0,0,1.7.09q.585,0,1.776-.05,1.209-.04,2.28-.04l.09.09a7.235,7.235,0,0,0-.2,1.2l-.1.08a15.174,15.174,0,0,0-2.461-.189c-.032,0-.131,0-.3.01a3.221,3.221,0,0,1,.119.884,4.912,4.912,0,0,1-1.655,3.42,6.121,6.121,0,0,0,3.568,1.3,1.347,1.347,0,0,0,.447-.065,4.091,4.091,0,0,0,.6-.292l.12.061.07.306Zm-6.674-.713a34.382,34.382,0,0,1-2.644-3.059,25.587,25.587,0,0,1-1.52-2.4,4.057,4.057,0,0,0-1.341,1.408,3.237,3.237,0,0,0-.357,1.466,3.492,3.492,0,0,0,.987,2.43,3.129,3.129,0,0,0,2.386,1.071A4.057,4.057,0,0,0,218.5,537.46Zm-3.144-7.042a5.279,5.279,0,0,0,1.339-1.349,2.646,2.646,0,0,0,.526-1.477,1.481,1.481,0,0,0-.3-.9.937.937,0,0,0-.79-.412,1.19,1.19,0,0,0-.9.421,1.8,1.8,0,0,0-.392,1.264A7.843,7.843,0,0,0,215.355,530.418Z" fill="#fff"/>
        <path id="Path_83" data-name="Path 83" d="M237.154,525.223v.494l-.07.069c-.462.015-.818.034-1.065.06a1.309,1.309,0,0,0-.541.148.712.712,0,0,0-.223.511,8.691,8.691,0,0,0-.054,1.116l-.021,2.282v7.121a9.779,9.779,0,0,1-.277,2.562,5.027,5.027,0,0,1-.972,1.846,5.162,5.162,0,0,1-1.433,1.26,3,3,0,0,1-1.462.411,1.809,1.809,0,0,1-.418-.051c.013-.264.024-.527.03-.792,0-.166-.009-.411-.03-.735l.189-.129a1.756,1.756,0,0,0,1.061.377,1.558,1.558,0,0,0,.8-.184,1,1,0,0,0,.442-.495,3.779,3.779,0,0,0,.159-1.144q.028-.834.029-1.429V529.9l-.019-1.935a13.385,13.385,0,0,0-.06-1.457.966.966,0,0,0-.143-.437.716.716,0,0,0-.357-.178,8.556,8.556,0,0,0-1.324-.11l-.071-.069v-.494l.071-.072q2.506.081,2.845.081t2.846-.081Z" fill="#fff"/>
        <path id="Path_84" data-name="Path 84" d="M238.345,525.223l.078-.072q3.4.062,4.355.06,3.254,0,5.791-.06l.051.072a16.805,16.805,0,0,0-.369,2.983l-.058.08h-.487l-.088-.08c.006-.058.01-.113.01-.158a9.741,9.741,0,0,0-.129-1.607,5.393,5.393,0,0,0-1.731-.362q-1.107-.084-1.66-.085c-.525,0-1.191.037-2.005.109l-.04,1.588-.029,1.813-.029,2.015q1.069.06,1.974.059c.607,0,1.115-.019,1.527-.059a2.589,2.589,0,0,0,.718-.124.42.42,0,0,0,.159-.248,3.722,3.722,0,0,0,.094-.649l.04-.616.079-.078h.456l.08.078q-.021,1.083-.051,2.172l.051,2.231-.08.08H246.6l-.079-.08-.069-.595c-.061-.463-.1-.739-.129-.827a.453.453,0,0,0-.183-.234,1.979,1.979,0,0,0-.74-.157c-.4-.042-.942-.061-1.636-.061q-.576,0-1.755.05-.051.831-.051,2.777,0,2.082.051,3.064h1.824c1.606,0,2.613-.019,3.014-.06a3.945,3.945,0,0,0,1.151-.286c.06-.154.157-.505.293-1.057s.213-.9.233-1.036l.1-.07h.475l.079.07A13.939,13.939,0,0,0,249,537.35q-.082,1.062-.083,1.815l-.071.081q-1.893-.063-4.957-.062l-2.7-.019q-.942,0-1.964.081l-.08-.081v-.328l.08-.1a5.29,5.29,0,0,0,.669-.37,7.638,7.638,0,0,0,.14-1.736q.056-1.664.054-2.535v-3.64l-.011-2.251q0-.734-.019-1.2a3.727,3.727,0,0,0-.069-.66.744.744,0,0,0-.115-.277.475.475,0,0,0-.208-.135,2.333,2.333,0,0,0-.49-.093l-.755-.06-.078-.069Z" fill="#fff"/>
        <path id="Path_85" data-name="Path 85" d="M254.7,539.353l-.9-4.136-1.916-8.162c-.151-.646-.309-1.01-.476-1.085a4.45,4.45,0,0,0-1.07-.214l-.079-.079v-.436l.079-.09q1.426.081,2.529.081.823,0,2.4-.081l.09.09v.436l-.079.079a7.969,7.969,0,0,0-1.324.109.307.307,0,0,0-.224.328,12.9,12.9,0,0,0,.2,1.315c.131.736.25,1.337.356,1.8l1.556,6.873,2.45-6.1q.965-2.418,1.9-5.067h.635q.791,2.488,1.636,4.829l2.331,6.467,1.685-5.921c.174-.621.384-1.438.637-2.449a14.181,14.181,0,0,0,.376-1.756.308.308,0,0,0-.248-.332,9.58,9.58,0,0,0-1.429-.1l-.079-.088v-.436l.079-.081c1.123.054,1.8.081,2.033.081.212,0,.9-.027,2.063-.081l.078.081v.445l-.078.069a2.369,2.369,0,0,0-.754.105.882.882,0,0,0-.328.259,4.092,4.092,0,0,0-.4,1.016l-.575,1.845-1.022,3.34q-.217.726-.8,2.937l-1.1,4.105h-1.012q-1.031-3.075-1.7-4.919l-2.262-6.119-1.974,4.9-1.061,2.777q-.416,1.1-.663,1.794l-.547,1.567Z" fill="#fff"/>
        <path id="Path_86" data-name="Path 86" d="M271.062,525.223l.079-.072q3.4.062,4.355.06,3.252,0,5.791-.06l.05.072a16.924,16.924,0,0,0-.368,2.983l-.058.08h-.487l-.088-.08a1.58,1.58,0,0,0,.009-.158,9.634,9.634,0,0,0-.129-1.607,5.393,5.393,0,0,0-1.73-.362q-1.107-.084-1.661-.085c-.524,0-1.191.037-2.005.109l-.04,1.588-.029,1.813-.029,2.015q1.071.06,1.974.059c.608,0,1.116-.019,1.527-.059a2.591,2.591,0,0,0,.719-.124.42.42,0,0,0,.159-.248,3.752,3.752,0,0,0,.093-.649l.041-.616.078-.078h.457l.08.078q-.021,1.083-.052,2.172l.052,2.231-.08.08h-.457l-.078-.08-.07-.595c-.061-.463-.1-.739-.128-.827a.46.46,0,0,0-.184-.234,1.967,1.967,0,0,0-.739-.157c-.4-.042-.942-.061-1.637-.061q-.576,0-1.755.05-.049.831-.051,2.777,0,2.082.051,3.064h1.825c1.605,0,2.612-.019,3.013-.06a3.959,3.959,0,0,0,1.152-.286c.059-.154.157-.505.292-1.057s.214-.9.233-1.036l.1-.07h.476l.078.07a14.3,14.3,0,0,0-.173,1.487q-.082,1.062-.084,1.815l-.071.081q-1.891-.063-4.957-.062l-2.7-.019q-.943,0-1.964.081l-.081-.081v-.328l.081-.1a5.159,5.159,0,0,0,.668-.37,7.638,7.638,0,0,0,.14-1.736q.056-1.664.055-2.535v-3.64l-.011-2.251q0-.734-.02-1.2a3.543,3.543,0,0,0-.069-.66.73.73,0,0,0-.114-.277.479.479,0,0,0-.209-.135,2.333,2.333,0,0,0-.49-.093l-.754-.06-.079-.069Z" fill="#fff"/>
        <path id="Path_87" data-name="Path 87" d="M283.113,525.223l.077-.072q2.46.081,2.837.081.339,0,2.847-.081l.08.072v.494l-.08.069c-.456.015-.808.034-1.056.06a1.309,1.309,0,0,0-.542.148.708.708,0,0,0-.222.511,8.7,8.7,0,0,0-.054,1.116l-.019,2.282v4.382q0,1.648.019,2.3l.048,1.715h2.026q2.418,0,3.018-.06a4.083,4.083,0,0,0,1.156-.286,8.3,8.3,0,0,0,.312-1.141c.136-.6.207-.938.213-1.032l.09-.08h.486l.069.08a15.44,15.44,0,0,0-.164,1.537q-.084,1.143-.085,1.845l-.079.081q-1.883-.063-4.949-.062l-2.895-.019q-.992,0-2.024.081l-.078-.081v-.328l.078-.1a4.132,4.132,0,0,0,.675-.386,6.4,6.4,0,0,0,.124-1.28q.066-1.211.064-2.915V529.9l-.02-1.935c-.007-.753-.023-1.239-.054-1.457a.894.894,0,0,0-.139-.437.7.7,0,0,0-.362-.178,8.6,8.6,0,0,0-1.32-.11l-.077-.069Z" fill="#fff"/>
        <path id="Path_88" data-name="Path 88" d="M295.519,525.223l.079-.072q2.459.081,2.837.081.338,0,2.845-.081l.081.072v.494l-.081.069c-.457.015-.807.034-1.055.06a1.309,1.309,0,0,0-.541.148.708.708,0,0,0-.223.511,8.844,8.844,0,0,0-.055,1.116l-.02,2.282v4.382q0,1.648.02,2.3l.05,1.715h2.023q2.422,0,3.019-.06a4.08,4.08,0,0,0,1.158-.286,8.67,8.67,0,0,0,.311-1.141c.135-.6.206-.938.213-1.032l.09-.08h.485l.071.08a14.019,14.019,0,0,0-.164,1.537c-.058.762-.085,1.376-.085,1.845l-.079.081q-1.885-.063-4.95-.062l-2.894-.019c-.662,0-1.338.026-2.024.081l-.079-.081v-.328l.079-.1a4.06,4.06,0,0,0,.673-.386,6.385,6.385,0,0,0,.126-1.28q.063-1.211.064-2.915V529.9l-.021-1.935q-.009-1.129-.053-1.457a.927.927,0,0,0-.139-.437.71.71,0,0,0-.362-.178,8.611,8.611,0,0,0-1.32-.11l-.079-.069Z" fill="#fff"/>
        <path id="Path_89" data-name="Path 89" d="M308.282,525.223l.08-.072q3.4.062,4.353.06,3.255,0,5.794-.06l.048.072a16.964,16.964,0,0,0-.366,2.983l-.06.08h-.487l-.089-.08a1.366,1.366,0,0,0,.011-.158,9.74,9.74,0,0,0-.13-1.607,5.381,5.381,0,0,0-1.731-.362q-1.1-.084-1.66-.085-.785,0-2.005.109L312,527.691l-.029,1.813-.031,2.015c.715.04,1.371.059,1.974.059s1.117-.019,1.527-.059a2.571,2.571,0,0,0,.718-.124.407.407,0,0,0,.16-.248,3.7,3.7,0,0,0,.095-.649l.038-.616.08-.078h.457l.079.078q-.023,1.083-.05,2.172l.05,2.231-.079.08h-.457l-.08-.08-.069-.595a8.052,8.052,0,0,0-.128-.827.46.46,0,0,0-.184-.234,1.961,1.961,0,0,0-.739-.157c-.4-.042-.942-.061-1.637-.061q-.576,0-1.755.05-.051.831-.05,2.777,0,2.082.05,3.064h1.824q2.412,0,3.016-.06a3.961,3.961,0,0,0,1.151-.286c.058-.154.158-.505.293-1.057s.212-.9.231-1.036l.1-.07h.476l.08.07a13.232,13.232,0,0,0-.173,1.487q-.086,1.062-.084,1.815l-.071.081q-1.9-.063-4.957-.062l-2.7-.019q-.943,0-1.963.081l-.08-.081v-.328l.08-.1a5.459,5.459,0,0,0,.669-.37,7.794,7.794,0,0,0,.138-1.736q.056-1.664.055-2.535v-3.64l-.01-2.251q0-.734-.019-1.2a3.589,3.589,0,0,0-.071-.66.768.768,0,0,0-.112-.277.5.5,0,0,0-.21-.135,2.36,2.36,0,0,0-.491-.093l-.753-.06-.08-.069Z" fill="#fff"/>
        <path id="Path_90" data-name="Path 90" d="M320.383,525.223l.079-.072q1.815.081,2.827.081,1.119,0,3.024-.071.7-.02,1.02-.019,2.511,0,3.4.913a2.984,2.984,0,0,1,.892,2.161,3.373,3.373,0,0,1-.437,1.636,3.868,3.868,0,0,1-1.289,1.374,6.376,6.376,0,0,1-2.35.858c.186.258.519.705,1,1.339l1.408,1.865q.684.921,1.467,1.949a6.337,6.337,0,0,0,1.012,1.16,1.213,1.213,0,0,0,.392.164,3.353,3.353,0,0,0,.521.029l.078.08v.466l-.088.089a9.014,9.014,0,0,0-1.131-.06c-.47,0-.981.019-1.537.06q-.686-.832-2.153-2.886-1.7-2.382-3.49-4.414l.1-.307c.344.019.612.031.8.031a4.034,4.034,0,0,0,2.688-.825,2.824,2.824,0,0,0,.974-2.281,2.335,2.335,0,0,0-.875-1.977,3.779,3.779,0,0,0-2.36-.67,6.557,6.557,0,0,0-1.964.287,19.984,19.984,0,0,0-.148,3.72v4.591l.01,1.934a13.363,13.363,0,0,0,.059,1.448.956.956,0,0,0,.144.437.78.78,0,0,0,.363.184,8.064,8.064,0,0,0,1.318.112l.08.061v.495l-.08.081c-.033,0-.614-.021-1.746-.062-.469-.013-.836-.019-1.1-.019q-.309,0-2.837.081l-.079-.081v-.495l.079-.061a10.238,10.238,0,0,0,1.229-.1.9.9,0,0,0,.412-.155.76.76,0,0,0,.168-.4,8.93,8.93,0,0,0,.074-1.369l.012-2.093V529.9l-.021-1.935a14.522,14.522,0,0,0-.055-1.457.906.906,0,0,0-.138-.437.714.714,0,0,0-.362-.178,8.593,8.593,0,0,0-1.319-.11l-.079-.069Z" fill="#fff"/>
        <path id="Path_91" data-name="Path 91" d="M333.284,526.084l-.089-.09v-.415l.089-.09,2.807-.466a3.372,3.372,0,0,1,.581.526,9.626,9.626,0,0,1,.824,1.184q.539.869,1.391,2.421t1.637,3.109l1.012-1.608,1.142-1.9,2.1-3.6a7.215,7.215,0,0,0,.753.041c.152,0,.382-.014.694-.041l.08.081v.187q-.5.546-1.538,1.98t-1.551,2.24q-.511.809-1.255,2.032a10.588,10.588,0,0,0-.814,1.475,2.186,2.186,0,0,0-.069.584v1.459l.01,1.488a9.6,9.6,0,0,0,.064,1.2.931.931,0,0,0,.15.445.711.711,0,0,0,.356.174,8.108,8.108,0,0,0,1.314.109l.08.061v.495l-.08.081q-.049,0-1.746-.062c-.47-.013-.836-.019-1.1-.019q-.318,0-2.837.081l-.078-.081v-.495l.078-.061a10.046,10.046,0,0,0,1.24-.1.88.88,0,0,0,.4-.155.678.678,0,0,0,.165-.366,7.161,7.161,0,0,0,.069-1.115l.021-1.7v-1.884a26.9,26.9,0,0,0-1.46-2.569l-.871-1.419q-.417-.674-1.047-1.571a8.419,8.419,0,0,0-.977-1.221,1.63,1.63,0,0,0-.536-.377A5.378,5.378,0,0,0,333.284,526.084Z" fill="#fff"/>
      </g>
    </g>
    <g id="Group_22" data-name="Group 22">
      <g id="Group_21" data-name="Group 21">
        <path id="Path_92" data-name="Path 92" d="M61.823,512.43l-.868,2.126a23.561,23.561,0,0,1-10.841,2.585q-8.257,0-13.414-4.687A15.8,15.8,0,0,1,31.544,500.2a16.177,16.177,0,0,1,2.57-9.114,15.964,15.964,0,0,1,6.793-5.832,22.53,22.53,0,0,1,9.481-1.934,28.562,28.562,0,0,1,6.015.642,25.235,25.235,0,0,1,4.962,1.532l.16.229a29.234,29.234,0,0,0-.984,6.336l-.16.182H59.306l-.182-.182-.229-3.888a12.363,12.363,0,0,0-4.036-2.072,16.375,16.375,0,0,0-4.929-.742A14.322,14.322,0,0,0,43,487.009a11.562,11.562,0,0,0-4.758,4.8,16.079,16.079,0,0,0-1.693,7.7,15.8,15.8,0,0,0,1.99,8.028,13.611,13.611,0,0,0,5.432,5.3,16.708,16.708,0,0,0,8.039,1.852,19.212,19.212,0,0,0,3.909-.387,14.837,14.837,0,0,0,3.123-.961,14.231,14.231,0,0,0,2.391-1.395Z" fill="#fff"/>
        <path id="Path_93" data-name="Path 93" d="M64.475,483.981q5.832.182,6.542.182.753,0,6.562-.182l.182.16v1.142l-.182.16c-1.053.03-1.864.078-2.434.137a3,3,0,0,0-1.248.343,1.63,1.63,0,0,0-.514,1.179,20.189,20.189,0,0,0-.126,2.572l-.045,5.26v3.2q5.009.14,9.49.137,6.129,0,9.332-.137v-3.2l-.047-4.458a31.49,31.49,0,0,0-.136-3.363,2.236,2.236,0,0,0-.322-1.006,1.544,1.544,0,0,0-.822-.411,19.712,19.712,0,0,0-3.065-.253l-.16-.16v-1.142l.16-.16q5.853.182,6.564.182.778,0,6.563-.182l.183.16v1.142l-.183.16c-1.067.03-1.885.078-2.458.137a2.986,2.986,0,0,0-1.246.343,1.581,1.581,0,0,0-.5,1.179,24.236,24.236,0,0,0-.137,2.572l-.045,5.26v10.59l.045,4.46a30.211,30.211,0,0,0,.137,3.337,2.128,2.128,0,0,0,.331,1.008,1.715,1.715,0,0,0,.823.422,17.9,17.9,0,0,0,3.053.262l.183.138v1.144l-.183.184q-5.853-.184-6.563-.184-.732,0-6.564.184l-.16-.184v-1.144l.16-.138a24.158,24.158,0,0,0,2.861-.227,2.008,2.008,0,0,0,.937-.355,1.927,1.927,0,0,0,.387-.926,18.53,18.53,0,0,0,.16-3.156l.047-4.825v-5.216q-6.772-.137-9.492-.137-2.79,0-9.33.137v5.216l.022,4.46a30.921,30.921,0,0,0,.138,3.337,2.139,2.139,0,0,0,.331,1.008,1.718,1.718,0,0,0,.835.422,17.991,17.991,0,0,0,3.041.262l.182.138v1.144l-.182.184q-5.831-.184-6.562-.184-.708,0-6.542.184l-.184-.184v-1.144l.184-.138a23.821,23.821,0,0,0,2.837-.227,2.1,2.1,0,0,0,.949-.355,1.806,1.806,0,0,0,.389-.926,21.339,21.339,0,0,0,.171-3.156l.023-4.825v-10.59l-.046-4.458q-.024-2.609-.127-3.363a2.067,2.067,0,0,0-.319-1.006,1.637,1.637,0,0,0-.836-.411,19.457,19.457,0,0,0-3.041-.253l-.184-.16v-1.142Z" fill="#fff"/>
        <path id="Path_94" data-name="Path 94" d="M103.1,516.479l-.2-.184v-1.189l.2-.182a9.918,9.918,0,0,0,2.15-.173,1.834,1.834,0,0,0,.858-.593,19.12,19.12,0,0,0,1.52-2.917l2.4-5.215,6.219-14.088q1.761-4.14,3.5-8.279h1.486L131,506.621l1.306,3.065c.379.869.819,1.814,1.313,2.835a8.654,8.654,0,0,0,1.031,1.808,1.9,1.9,0,0,0,.708.422,7.672,7.672,0,0,0,1.888.173l.183.182v1.189l-.183.184q-2.427-.206-4.369-.208-3.8.117-7.594.208l-.183-.184v-1.189l.183-.182a18.462,18.462,0,0,0,3.2-.219.759.759,0,0,0,.64-.789,3.858,3.858,0,0,0-.321-1.326L126,505.615H112.754l-2.495,5.853a6.894,6.894,0,0,0-.661,2.31.9.9,0,0,0,.617.849,10.557,10.557,0,0,0,3.11.3l.206.182v1.189l-.184.184q-2.949-.184-5.167-.184Q105.664,516.295,103.1,516.479Zm10.429-12.83H125.1l-5.74-13.791Z" fill="#fff"/>
        <path id="Path_95" data-name="Path 95" d="M139.878,483.981l2.857.089q2.813.1,3.683.093.775,0,6.564-.182l.182.16v1.142l-.182.16c-1.053.03-1.866.078-2.435.137a2.982,2.982,0,0,0-1.248.343,1.631,1.631,0,0,0-.515,1.179,20.6,20.6,0,0,0-.125,2.572l-.046,5.26v10.59l.022,4.46a31.588,31.588,0,0,0,.137,3.337,2.172,2.172,0,0,0,.332,1.008,1.716,1.716,0,0,0,.837.422,17.954,17.954,0,0,0,3.041.262l.182.138v1.144l-.182.184q-.114,0-4.025-.137-1.626-.048-2.539-.047-.708,0-6.54.184l-.184-.184v-1.144l.184-.138a23.858,23.858,0,0,0,2.835-.227,2.115,2.115,0,0,0,.949-.355,1.813,1.813,0,0,0,.39-.926,21.341,21.341,0,0,0,.171-3.156l.022-4.825v-10.59l-.044-4.458q-.025-2.609-.127-3.363a2.078,2.078,0,0,0-.319-1.006,1.65,1.65,0,0,0-.836-.411,19.514,19.514,0,0,0-3.041-.253l-.184-.16v-1.142Z" fill="#fff"/>
        <path id="Path_96" data-name="Path 96" d="M186.211,512.43l-.869,2.126a23.548,23.548,0,0,1-10.84,2.585q-8.256,0-13.412-4.687a15.786,15.786,0,0,1-5.158-12.259,16.178,16.178,0,0,1,2.572-9.114,15.952,15.952,0,0,1,6.793-5.832,22.511,22.511,0,0,1,9.479-1.934,28.562,28.562,0,0,1,6.015.642,25.15,25.15,0,0,1,4.962,1.532l.16.229a29.349,29.349,0,0,0-.982,6.336l-.16.182H183.7l-.182-.182-.231-3.888a12.352,12.352,0,0,0-4.036-2.072,16.371,16.371,0,0,0-4.929-.742,14.333,14.333,0,0,0-6.928,1.657,11.566,11.566,0,0,0-4.757,4.8,16.067,16.067,0,0,0-1.692,7.7,15.776,15.776,0,0,0,1.99,8.028,13.6,13.6,0,0,0,5.431,5.3,16.708,16.708,0,0,0,8.039,1.852,19.236,19.236,0,0,0,3.91-.387,14.779,14.779,0,0,0,3.121-.961,14.279,14.279,0,0,0,2.392-1.395Z" fill="#fff"/>
        <path id="Path_97" data-name="Path 97" d="M188.863,483.981q5.83.182,6.542.182.756,0,6.564-.182l.182.16v1.142l-.182.16c-1.053.03-1.864.078-2.437.137a2.99,2.99,0,0,0-1.246.343,1.623,1.623,0,0,0-.514,1.179,20,20,0,0,0-.126,2.572l-.045,5.26v3.2q5.006.14,9.49.137,6.127,0,9.33-.137v-3.2l-.044-4.458a31.286,31.286,0,0,0-.138-3.363,2.266,2.266,0,0,0-.32-1.006,1.564,1.564,0,0,0-.822-.411,19.741,19.741,0,0,0-3.065-.253l-.161-.16v-1.142l.161-.16q5.853.182,6.562.182.782,0,6.565-.182l.182.16v1.142l-.182.16c-1.067.03-1.888.078-2.459.137a2.976,2.976,0,0,0-1.246.343,1.588,1.588,0,0,0-.5,1.179,25.123,25.123,0,0,0-.136,2.572l-.047,5.26v10.59l.047,4.46a31.122,31.122,0,0,0,.136,3.337,2.136,2.136,0,0,0,.333,1.008,1.7,1.7,0,0,0,.822.422,17.883,17.883,0,0,0,3.054.262l.182.138v1.144l-.182.184q-5.856-.184-6.565-.184-.732,0-6.562.184l-.161-.184v-1.144l.161-.138a24.108,24.108,0,0,0,2.858-.227,2.018,2.018,0,0,0,.938-.355,1.956,1.956,0,0,0,.388-.926,18.6,18.6,0,0,0,.161-3.156l.044-4.825v-5.216q-6.768-.137-9.49-.137-2.79,0-9.33.137v5.216l.023,4.46a30.386,30.386,0,0,0,.138,3.337,2.117,2.117,0,0,0,.331,1.008,1.709,1.709,0,0,0,.833.422,18.012,18.012,0,0,0,3.043.262l.182.138v1.144l-.182.184q-5.832-.184-6.564-.184-.709,0-6.542.184l-.182-.184v-1.144l.182-.138a23.819,23.819,0,0,0,2.836-.227,2.115,2.115,0,0,0,.951-.355,1.79,1.79,0,0,0,.387-.926,20.768,20.768,0,0,0,.171-3.156l.024-4.825v-10.59l-.046-4.458q-.022-2.609-.127-3.363a2.057,2.057,0,0,0-.319-1.006,1.642,1.642,0,0,0-.834-.411,19.551,19.551,0,0,0-3.043-.253l-.182-.16v-1.142Z" fill="#fff"/>
        <path id="Path_98" data-name="Path 98" d="M227.492,516.479l-.206-.184v-1.189l.206-.182a9.933,9.933,0,0,0,2.15-.173,1.826,1.826,0,0,0,.855-.593,18.756,18.756,0,0,0,1.522-2.917l2.4-5.215,6.221-14.088q1.758-4.14,3.5-8.279h1.489l9.765,22.962,1.3,3.065q.571,1.3,1.315,2.835a8.528,8.528,0,0,0,1.03,1.808,1.906,1.906,0,0,0,.707.422,7.692,7.692,0,0,0,1.888.173l.182.182v1.189l-.182.184q-2.425-.206-4.37-.208-3.793.117-7.592.208l-.182-.184v-1.189l.182-.182a18.452,18.452,0,0,0,3.2-.219.76.76,0,0,0,.64-.789,3.924,3.924,0,0,0-.32-1.326l-2.812-6.975H237.141l-2.492,5.853a6.878,6.878,0,0,0-.662,2.31.9.9,0,0,0,.617.849,10.56,10.56,0,0,0,3.111.3l.2.182v1.189l-.183.184q-2.95-.184-5.168-.184Q230.054,516.295,227.492,516.479Zm10.427-12.83h11.573l-5.74-13.791Z" fill="#fff"/>
        <path id="Path_99" data-name="Path 99" d="M263.762,484.141l.184-.16q5.671.182,6.541.182.777,0,6.563-.182l.182.16v1.142l-.182.16c-1.053.03-1.864.078-2.437.137a3,3,0,0,0-1.246.343,1.619,1.619,0,0,0-.513,1.179,20.151,20.151,0,0,0-.127,2.572l-.044,5.26v10.11q0,3.793.044,5.3l.115,3.957h4.665q5.58,0,6.964-.137a9.443,9.443,0,0,0,2.664-.664,18.933,18.933,0,0,0,.721-2.63q.47-2.059.491-2.379l.207-.182h1.121l.161.182a34.541,34.541,0,0,0-.38,3.545q-.192,2.628-.193,4.254l-.183.184q-4.347-.14-11.413-.137l-6.677-.047q-2.289,0-4.665.184l-.184-.184v-.755l.184-.229a9.8,9.8,0,0,0,1.555-.891,14.749,14.749,0,0,0,.286-2.952q.146-2.79.149-6.722v-9.812l-.048-4.458q-.022-2.609-.125-3.363a2.1,2.1,0,0,0-.32-1.006,1.637,1.637,0,0,0-.835-.411,19.486,19.486,0,0,0-3.041-.253l-.184-.16Z" fill="#fff"/>
        <path id="Path_100" data-name="Path 100" d="M293.2,484.141l.185-.16q7.842.134,10.038.136,7.5,0,13.357-.136l.115.16a38.822,38.822,0,0,0-.848,6.882l-.138.182h-1.119l-.205-.182c.014-.138.022-.258.022-.365a22.261,22.261,0,0,0-.3-3.7,12.342,12.342,0,0,0-3.991-.835q-2.55-.192-3.83-.2-1.808,0-4.62.253l-.091,3.659-.069,4.185-.069,4.642q2.472.137,4.552.138,2.1,0,3.521-.138a5.947,5.947,0,0,0,1.659-.285.954.954,0,0,0,.364-.573,8.507,8.507,0,0,0,.22-1.5l.089-1.417.185-.182h1.05l.184.182q-.047,2.494-.113,5.009l.113,5.147-.184.182h-1.05l-.185-.182-.16-1.373a18.666,18.666,0,0,0-.3-1.91,1.008,1.008,0,0,0-.421-.538,4.537,4.537,0,0,0-1.7-.364q-1.374-.14-3.776-.138-1.326,0-4.048.113-.114,1.923-.115,6.4,0,4.8.115,7.067h4.208q5.556,0,6.952-.137a9.181,9.181,0,0,0,2.652-.664,25.068,25.068,0,0,0,.678-2.435q.468-1.911.535-2.392l.231-.16h1.1l.183.16a31.4,31.4,0,0,0-.4,3.432q-.193,2.447-.194,4.185l-.16.184q-4.368-.14-11.435-.137l-6.22-.047q-2.172,0-4.527.184l-.184-.184v-.755l.184-.229a12.773,12.773,0,0,0,1.544-.857,18.135,18.135,0,0,0,.32-4q.122-3.834.125-5.845v-8.392l-.023-5.193q0-1.691-.047-2.757a8.479,8.479,0,0,0-.159-1.519,1.732,1.732,0,0,0-.263-.64,1.107,1.107,0,0,0-.482-.309,5.26,5.26,0,0,0-1.13-.218l-1.737-.137-.185-.16Z" fill="#fff"/>
        <path id="Path_101" data-name="Path 101" d="M321.1,484.141l.183-.16q4.185.182,6.517.182,2.583,0,6.975-.16c1.082-.029,1.867-.046,2.356-.046q5.787,0,7.844,2.1a6.885,6.885,0,0,1,2.059,4.984,7.837,7.837,0,0,1-1.006,3.776,8.95,8.95,0,0,1-2.972,3.166,14.83,14.83,0,0,1-5.42,1.979q.637.893,2.31,3.087l3.248,4.3q1.575,2.125,3.382,4.494a14.269,14.269,0,0,0,2.335,2.674,2.9,2.9,0,0,0,.9.378,7.417,7.417,0,0,0,1.2.069l.184.182v1.075l-.206.207a21.449,21.449,0,0,0-2.608-.138c-1.083,0-2.262.047-3.544.138q-1.578-1.923-4.964-6.656-3.934-5.487-8.05-10.178l.23-.708c.793.044,1.411.068,1.853.068a9.3,9.3,0,0,0,6.2-1.9,6.522,6.522,0,0,0,2.239-5.261,5.38,5.38,0,0,0-2.013-4.56,8.707,8.707,0,0,0-5.442-1.544,15.093,15.093,0,0,0-4.527.662q-.345.5-.344,8.576v10.59l.024,4.46a30.123,30.123,0,0,0,.138,3.337,2.117,2.117,0,0,0,.331,1.008,1.709,1.709,0,0,0,.833.422,18,18,0,0,0,3.043.262l.182.138v1.144l-.182.184c-.078,0-1.417-.046-4.025-.137-1.082-.032-1.931-.047-2.539-.047q-.711,0-6.541.184l-.183-.184v-1.144l.183-.138a23.882,23.882,0,0,0,2.836-.227,2.1,2.1,0,0,0,.948-.355,1.764,1.764,0,0,0,.389-.926,20.633,20.633,0,0,0,.171-3.156l.023-4.825v-10.59l-.045-4.458q-.022-2.609-.126-3.363a2.043,2.043,0,0,0-.321-1.006,1.638,1.638,0,0,0-.832-.411,19.55,19.55,0,0,0-3.043-.253l-.183-.16Z" fill="#fff"/>
        <path id="Path_102" data-name="Path 102" d="M394.442,484.048l.205.182v1.122l-.183.16a16.915,16.915,0,0,0-3.121.251,1.423,1.423,0,0,0-.858.606,3.866,3.866,0,0,0-.286,1.659q-.033,1.234-.124,6.976v10.542q0,2.288.066,5.169a14.07,14.07,0,0,0,.287,3.35,1.35,1.35,0,0,0,.789.686,14.368,14.368,0,0,0,3.247.285l.183.161v1.122l-.205.182q-3.727-.207-6.495-.206-1.876,0-6.38.206l-.206-.182v-1.1l.184-.184a16.815,16.815,0,0,0,3.121-.25,1.426,1.426,0,0,0,.857-.606,4.007,4.007,0,0,0,.3-1.681q.048-1.259.115-6.953V488.76l-7.89,16.511q-2.973,6.2-5.191,11.666h-.891q-1.284-2.952-2.106-4.713l-10.931-22.71V505.5q0,2.241.058,5.156a13.223,13.223,0,0,0,.286,3.375,1.436,1.436,0,0,0,.8.684,13.287,13.287,0,0,0,3.248.275l.182.182v1.1l-.2.208-1.466-.071q-2.262-.111-3.887-.113-.73,0-5.465.184l-.184-.184v-1.1l.184-.206a15.8,15.8,0,0,0,3.11-.229,1.447,1.447,0,0,0,.858-.617,3.656,3.656,0,0,0,.3-1.624q.037-1.188.1-7.02V495.025q0-2.08-.056-5.066a14.631,14.631,0,0,0-.275-3.452,1.386,1.386,0,0,0-.789-.7,13.308,13.308,0,0,0-3.248-.274l-.184-.184v-1.1l.207-.206q1.578.117,4.253.115,2.514,0,4.392-.115,1.92,4.436,3.681,8.028l8.67,17.793,7.819-16.307q3.182-6.609,4.278-9.514,2.193.117,4.323.115Q391.833,484.163,394.442,484.048Z" fill="#fff"/>
      </g>
    </g>
    <g id="Group_23" data-name="Group 23">
      <path id="Path_103" data-name="Path 103" d="M213.094,400.2l-9.17,28.226H174.245l24.009,17.445-9.172,28.226,24.011-17.446L237.1,474.093l-9.17-28.226,24.011-17.445h-29.68Z" fill="none" stroke="#fff" stroke-miterlimit="10" stroke-width="2.098"/>
      <path id="Path_104" data-name="Path 104" d="M213.094,400.2l-9.17,28.226,9.17,12.623Z" fill="#fff"/>
      <path id="Path_105" data-name="Path 105" d="M174.245,428.423l24.009,17.445,14.839-4.822Z" fill="#fff"/>
      <path id="Path_106" data-name="Path 106" d="M189.083,474.093l24.011-17.446v-15.6Z" fill="#fff"/>
      <path id="Path_107" data-name="Path 107" d="M237.1,474.093l-9.17-28.226-14.841-4.822Z" fill="#fff"/>
      <path id="Path_108" data-name="Path 108" d="M251.945,428.423h-29.68l-9.172,12.623Z" fill="#fff"/>
    </g>
  </g>
</svg>
