<svg id="Layer_1" data-name="Layer 1" xmlns="http://www.w3.org/2000/svg" viewBox="0 0 365 146"><defs><style>.cls-1{fill:#fff;}.cls-2{fill:none;stroke:#fff;stroke-miterlimit:10;stroke-width:2.1px;}</style></defs><path class="cls-1" d="M63.63,136.71V137l0,.12-.49.29a.58.58,0,0,0-.21.17,3.76,3.76,0,0,0-.07.59c0,.35,0,.79,0,1.29a18.27,18.27,0,0,0,.1,1.88l-.05.1a15.64,15.64,0,0,1-5.59,1,9.28,9.28,0,0,1-4-.83,6.57,6.57,0,0,1-2.82-2.47,7.13,7.13,0,0,1-1-3.89,6.85,6.85,0,0,1,2.34-5.46,9.06,9.06,0,0,1,6.13-2,12.61,12.61,0,0,1,5,.94l.06.11a27.06,27.06,0,0,0-.41,2.79l-.08.07H62l-.08-.08,0-1a3.87,3.87,0,0,0-.06-.61.66.66,0,0,0-.21-.23,4.87,4.87,0,0,0-.92-.46,7.69,7.69,0,0,0-1.49-.45,8,8,0,0,0-1.59-.15,6.57,6.57,0,0,0-3.21.76,4.81,4.81,0,0,0-2.11,2.19,7.27,7.27,0,0,0-.71,3.21,7.66,7.66,0,0,0,.76,3.4,5.73,5.73,0,0,0,2.19,2.45,6.21,6.21,0,0,0,3.33.89,8.87,8.87,0,0,0,1.68-.17,5,5,0,0,0,1.41-.46,5.74,5.74,0,0,0,.09-1.28v-1.1a2.74,2.74,0,0,0-.1-1,.73.73,0,0,0-.49-.27,13.45,13.45,0,0,0-1.69-.1l-.09-.09v-.43l.09-.09.61,0c1,0,1.88.05,2.53.05.38,0,.93,0,1.66-.06Z"/><path class="cls-1" d="M64.75,135.28a8.66,8.66,0,0,1,.43-2.78,6.4,6.4,0,0,1,1.45-2.38,7,7,0,0,1,2.47-1.7,8.51,8.51,0,0,1,3.27-.6,7.63,7.63,0,0,1,5.39,1.84,6.47,6.47,0,0,1,2,5,8.15,8.15,0,0,1-1,4A6.84,6.84,0,0,1,76,141.49a8.5,8.5,0,0,1-4.11,1,8,8,0,0,1-3-.54,6.15,6.15,0,0,1-2.31-1.61,6.6,6.6,0,0,1-1.39-2.48A8.79,8.79,0,0,1,64.75,135.28Zm2.06-.66a9.72,9.72,0,0,0,.39,2.61,7.21,7.21,0,0,0,1.17,2.39,5,5,0,0,0,1.8,1.48,5.36,5.36,0,0,0,2.31.49,5.3,5.3,0,0,0,2.74-.71,4.41,4.41,0,0,0,1.83-2.19,8.54,8.54,0,0,0,.62-3.32,8.79,8.79,0,0,0-.71-3.62,4.76,4.76,0,0,0-2-2.35,5.87,5.87,0,0,0-2.92-.74,4.93,4.93,0,0,0-3.8,1.51A6.4,6.4,0,0,0,66.81,134.62Z"/><path class="cls-1" d="M80.61,128.17l.08-.07,2.83.08,2.85-.08.08.07v.49l-.08.07-1.06.06a1.47,1.47,0,0,0-.54.15.74.74,0,0,0-.22.51,8.34,8.34,0,0,0,0,1.12l0,2.28v4.38c0,1.1,0,1.87,0,2.3l0,1.72h2c1.61,0,2.62,0,3-.06a4.13,4.13,0,0,0,1.15-.29,7.06,7.06,0,0,0,.32-1.14c.13-.59.2-.94.21-1l.09-.08h.48l.07.08c0,.26-.1.78-.16,1.54s-.08,1.37-.08,1.84l-.08.08q-1.89-.06-5-.06l-2.9,0c-.66,0-1.33,0-2,.08l-.08-.08v-.33l.08-.1a3.88,3.88,0,0,0,.67-.38,6.67,6.67,0,0,0,.13-1.28c0-.81.06-1.78.06-2.92v-4.25l0-1.93c0-.76,0-1.24,0-1.46a.93.93,0,0,0-.14-.44.74.74,0,0,0-.36-.18,10.07,10.07,0,0,0-1.32-.11l-.08-.07Z"/><path class="cls-1" d="M92.94,128.17l.08-.07c1.15.05,1.93.08,2.34.08l4.65-.1a11.76,11.76,0,0,1,3.25.37,5.62,5.62,0,0,1,2.26,1.29,6.18,6.18,0,0,1,1.49,2.13,6.66,6.66,0,0,1,.51,2.6,7.81,7.81,0,0,1-.46,2.64,7.46,7.46,0,0,1-1.33,2.35,7.16,7.16,0,0,1-2,1.67,7,7,0,0,1-2.2.85,11.92,11.92,0,0,1-2.25.21c-.51,0-1.49,0-2.91-.06l-.94,0c-.45,0-1,0-1.65.08l-.08-.08v-.33l.08-.1a4.65,4.65,0,0,0,.67-.37,8.47,8.47,0,0,0,.14-1.73c0-1.11,0-2,0-2.54v-5.89c0-.49,0-.88,0-1.19a3.63,3.63,0,0,0-.07-.66.77.77,0,0,0-.11-.28.47.47,0,0,0-.21-.13,2.25,2.25,0,0,0-.49-.1l-.76-.06-.08-.07Zm3.67,12.94a12.45,12.45,0,0,0,2.34.2,7.61,7.61,0,0,0,3.69-.77,4.84,4.84,0,0,0,2.07-2.3,8.32,8.32,0,0,0,.68-3.42,6,6,0,0,0-1.5-4.35c-1-1-2.57-1.55-4.72-1.55a16.39,16.39,0,0,0-2.56.2c0,1.08-.08,2.31-.08,3.67v3.11l0,2.92C96.56,139.39,96.57,140.15,96.61,141.11Z"/><path class="cls-1" d="M109.15,138.7l.08-.08h.49l.08.08a8.55,8.55,0,0,0,.13,1.55,1.28,1.28,0,0,0,.53.6,3.83,3.83,0,0,0,1.2.51,6,6,0,0,0,1.52.2,4.44,4.44,0,0,0,1.89-.39,3,3,0,0,0,1.3-1.13,3.16,3.16,0,0,0,.47-1.69,2.73,2.73,0,0,0-.23-1.14,2,2,0,0,0-.62-.78,2.78,2.78,0,0,0-.92-.43,14,14,0,0,0-1.54-.31c-.66-.11-1.18-.21-1.55-.29a5.49,5.49,0,0,1-1.11-.4,3,3,0,0,1-.93-.68,3,3,0,0,1-.6-1,3.63,3.63,0,0,1-.22-1.28,3.94,3.94,0,0,1,1.29-3,4.91,4.91,0,0,1,3.46-1.19,8.7,8.7,0,0,1,1.88.22,7.46,7.46,0,0,1,1.85.63l.07.11a13,13,0,0,0-.27,2.6l-.09.08h-.51l-.08-.07c0-.79,0-1.29-.06-1.5s-.33-.46-.9-.76a4,4,0,0,0-1.88-.46,3.83,3.83,0,0,0-1.58.34,2.33,2.33,0,0,0-1.11,1.06,3.21,3.21,0,0,0-.37,1.48,2.31,2.31,0,0,0,.22,1,2,2,0,0,0,.59.71,2.45,2.45,0,0,0,.85.39,17.7,17.7,0,0,0,1.76.32,10.37,10.37,0,0,1,2.55.6,2.87,2.87,0,0,1,1.28,1.11,3.42,3.42,0,0,1,.48,1.85,4.36,4.36,0,0,1-1.72,3.52,6.38,6.38,0,0,1-4.17,1.41,8.44,8.44,0,0,1-3.6-.73l-.06-.13A27.06,27.06,0,0,0,109.15,138.7Z"/><path class="cls-1" d="M137.68,128.13l.09.08v.48l-.08.07a7.36,7.36,0,0,0-1.35.11.56.56,0,0,0-.37.27,1.52,1.52,0,0,0-.13.71c0,.36,0,1.37-.05,3v4.57c0,.66,0,1.41,0,2.24a6.25,6.25,0,0,0,.12,1.45.57.57,0,0,0,.34.3,6.37,6.37,0,0,0,1.41.13l.08.07v.48l-.09.08c-1.08-.06-2-.09-2.82-.09-.53,0-1.46,0-2.76.09l-.09-.08v-.47l.08-.08a7.36,7.36,0,0,0,1.35-.11.62.62,0,0,0,.37-.26,1.62,1.62,0,0,0,.13-.73c0-.37,0-1.37.05-3v-7.28l-3.42,7.16q-1.29,2.68-2.25,5.06h-.39c-.37-.85-.67-1.53-.91-2l-4.74-9.85v6.93c0,.65,0,1.39,0,2.24a5.56,5.56,0,0,0,.13,1.46.66.66,0,0,0,.35.3,6.48,6.48,0,0,0,1.41.12l.07.08v.47l-.08.09-.64,0c-.65,0-1.22,0-1.69,0l-2.36.08-.08-.08v-.47l.08-.09a7.72,7.72,0,0,0,1.34-.1.56.56,0,0,0,.37-.27,1.53,1.53,0,0,0,.13-.7c0-.35,0-1.36,0-3v-4.54c0-.6,0-1.34,0-2.2a5.65,5.65,0,0,0-.12-1.5.6.6,0,0,0-.34-.3,5.81,5.81,0,0,0-1.4-.12l-.08-.08v-.47l.08-.09c.46,0,1.08.05,1.85.05s1.36,0,1.9-.05c.56,1.28,1.09,2.44,1.6,3.48l3.76,7.72,3.39-7.08c.92-1.91,1.54-3.28,1.85-4.12.64,0,1.26.05,1.88.05S136.93,128.16,137.68,128.13Z"/><path class="cls-1" d="M138.82,128.1l1.24,0,1.6,0,2.85-.08.08.07v.49l-.08.07-1.06.06a1.35,1.35,0,0,0-.54.15.7.7,0,0,0-.22.51,8,8,0,0,0-.06,1.12l0,2.28v6.52c0,.75,0,1.23.06,1.45a.82.82,0,0,0,.15.44.74.74,0,0,0,.36.18,7.88,7.88,0,0,0,1.32.12l.08.06v.49l-.08.08-1.75-.06-1.1,0-2.84.08-.08-.08v-.49l.08-.06a10.8,10.8,0,0,0,1.23-.1.89.89,0,0,0,.42-.16.8.8,0,0,0,.16-.4,8.34,8.34,0,0,0,.08-1.37v-6.68l0-1.93c0-.76,0-1.24-.06-1.46a.83.83,0,0,0-.14-.44.74.74,0,0,0-.36-.18,10.07,10.07,0,0,0-1.32-.11l-.08-.07v-.49Z"/><path class="cls-1" d="M157.05,128.1l.09.09c-.06.59-.09,1.63-.09,3.11l-.08.08h-.46l-.08-.09-.11-.91a7.21,7.21,0,0,0-.13-.9.41.41,0,0,0-.14-.24,1.77,1.77,0,0,0-.65-.12c-.36,0-.77-.05-1.21-.05h-1.88c-.05,1.49-.08,2.36-.08,2.59v5.78l0,1.93c0,.75,0,1.24.06,1.46a.77.77,0,0,0,.13.43.84.84,0,0,0,.37.18,8,8,0,0,0,1.33.12l.07.06v.49l-.07.08-2.84-.08-2.83.08-.08-.08v-.49l.08-.06a11.06,11.06,0,0,0,1.24-.1.76.76,0,0,0,.4-.16.78.78,0,0,0,.18-.4,8.79,8.79,0,0,0,.07-1.37l0-2.09v-5.78c0-.11,0-1-.08-2.59h-1.48c-.61,0-1.13,0-1.58,0s-.7.09-.77.2a3.69,3.69,0,0,0-.19,1.07l-.1.91-.09.09h-.45l-.08-.08c0-1.59-.05-2.63-.09-3.11l.09-.09c1.15.05,3.06.08,5.74.08S156,128.15,157.05,128.1Z"/><path class="cls-1" d="M158.11,128.1l2.84.08,2.85-.08.07.07v.49l-.07.07-1.06.06a1.35,1.35,0,0,0-.54.15.7.7,0,0,0-.22.51,8,8,0,0,0-.06,1.12l0,2.28v1.39c1.45,0,2.82.06,4.12.06,1.77,0,3.12,0,4-.06v-1.39l0-1.93a10.59,10.59,0,0,0-.06-1.46,1.09,1.09,0,0,0-.13-.44.8.8,0,0,0-.36-.18,10.11,10.11,0,0,0-1.33-.11l-.07-.07v-.49l.07-.07,2.84.08,2.85-.08.08.07v.49l-.08.07-1.07.06a1.47,1.47,0,0,0-.54.15.7.7,0,0,0-.21.51,8,8,0,0,0-.06,1.12l0,2.28v4.59l0,1.93a10.51,10.51,0,0,0,.06,1.45.93.93,0,0,0,.14.44.74.74,0,0,0,.36.18,7.74,7.74,0,0,0,1.32.12l.08.06v.49l-.08.08-2.85-.08-2.84.08-.07-.08v-.49l.07-.06a11.3,11.3,0,0,0,1.24-.1.76.76,0,0,0,.4-.16.71.71,0,0,0,.17-.4,7.64,7.64,0,0,0,.07-1.37l0-2.09v-2.26c-1.95,0-3.33-.06-4.11-.06s-2.16,0-4,.06v4.19c0,.75,0,1.23.06,1.45a.93.93,0,0,0,.14.44.84.84,0,0,0,.37.18,7.74,7.74,0,0,0,1.32.12l.07.06v.49l-.07.08-2.85-.08-2.84.08-.08-.08v-.49l.08-.06a10.8,10.8,0,0,0,1.23-.1.8.8,0,0,0,.41-.16.71.71,0,0,0,.17-.4,8.34,8.34,0,0,0,.08-1.37v-6.68l0-1.93c0-.76,0-1.24-.06-1.46a.83.83,0,0,0-.14-.44.74.74,0,0,0-.36-.18,10.07,10.07,0,0,0-1.32-.11l-.08-.07v-.49Z"/><path class="cls-1" d="M194.7,141.12c-.54.38-1.09.8-1.67,1.28a3,3,0,0,1-.69.07,4.58,4.58,0,0,1-1.78-.37,7.56,7.56,0,0,1-1.89-1.19,8.5,8.5,0,0,1-2.2,1.27,6,6,0,0,1-1.91.3,3.88,3.88,0,0,1-3.08-1.21,4,4,0,0,1-1.06-2.76c0-1.77,1-3.21,3.11-4.33a6.75,6.75,0,0,1-.59-2.59,3,3,0,0,1,.13-.91,2.5,2.5,0,0,1,.3-.67,3.55,3.55,0,0,1,.59-.6c.28-.24.54-.47.8-.68a2.54,2.54,0,0,1,.74-.46,2.09,2.09,0,0,1,.76-.13,1.71,1.71,0,0,1,1.37.52,2,2,0,0,1,.46,1.34q0,2.07-2.88,4a16.21,16.21,0,0,0,1.88,2.84,15,15,0,0,0,2.22,2.33,3.51,3.51,0,0,0,1-2.43,3,3,0,0,0-.12-.9.93.93,0,0,0-.32-.49,1.48,1.48,0,0,0-.71-.12l-1.06,0-.09-.13.65-.94a11.89,11.89,0,0,0,1.69.09c.4,0,1,0,1.78-.05s1.57,0,2.28,0l.09.09a6.83,6.83,0,0,0-.2,1.2l-.1.08a14.62,14.62,0,0,0-2.46-.19h-.29a3.59,3.59,0,0,1,.12.88,4.9,4.9,0,0,1-1.66,3.42,6.11,6.11,0,0,0,3.57,1.3,1.42,1.42,0,0,0,.44-.06,3.56,3.56,0,0,0,.61-.3l.12.07.07.3Zm-6.68-.71a35.06,35.06,0,0,1-2.64-3.06,25.28,25.28,0,0,1-1.52-2.4,4.06,4.06,0,0,0-1.34,1.41,3.25,3.25,0,0,0-.36,1.47,3.5,3.5,0,0,0,1,2.43,3.14,3.14,0,0,0,2.38,1.07A4.07,4.07,0,0,0,188,140.41Zm-3.14-7a5.33,5.33,0,0,0,1.34-1.34,2.66,2.66,0,0,0,.52-1.48,1.5,1.5,0,0,0-.3-.9.94.94,0,0,0-.79-.41,1.19,1.19,0,0,0-.89.42,1.81,1.81,0,0,0-.4,1.27A7.92,7.92,0,0,0,184.88,133.36Z"/><path class="cls-1" d="M206.68,128.17v.49l-.07.07-1.07.06a1.47,1.47,0,0,0-.54.15.74.74,0,0,0-.22.51,8.34,8.34,0,0,0-.05,1.12l0,2.28V140a10,10,0,0,1-.27,2.56,5.15,5.15,0,0,1-1,1.85,5.32,5.32,0,0,1-1.44,1.26,3,3,0,0,1-1.46.41,2,2,0,0,1-.42-.05c0-.26,0-.53,0-.79s0-.41,0-.74l.19-.13a1.77,1.77,0,0,0,1.06.38,1.58,1.58,0,0,0,.8-.18,1,1,0,0,0,.44-.5,3.64,3.64,0,0,0,.16-1.14c0-.56,0-1,0-1.43v-8.62l0-1.93a10.59,10.59,0,0,0-.06-1.46.93.93,0,0,0-.14-.44.8.8,0,0,0-.36-.18,10.07,10.07,0,0,0-1.32-.11l-.07-.07v-.49l.07-.07,2.84.08,2.85-.08Z"/><path class="cls-1" d="M207.87,128.17l.08-.07,4.35.06q3.25,0,5.79-.06l0,.07a17.59,17.59,0,0,0-.36,3l-.06.08h-.49l-.09-.08a.81.81,0,0,0,0-.15,9.21,9.21,0,0,0-.13-1.61,5.05,5.05,0,0,0-1.73-.36c-.74-.06-1.29-.09-1.66-.09s-1.19,0-2,.11l0,1.59,0,1.81,0,2c.71,0,1.37.06,2,.06s1.12,0,1.53-.06a2.26,2.26,0,0,0,.72-.13.4.4,0,0,0,.16-.25,3.82,3.82,0,0,0,.09-.65l0-.61.08-.08h.46l.08.08c0,.72,0,1.44,0,2.17l0,2.23-.08.08h-.46l-.08-.08-.07-.59a7.15,7.15,0,0,0-.13-.83.36.36,0,0,0-.18-.23,1.91,1.91,0,0,0-.74-.16c-.4,0-.94-.06-1.64-.06-.38,0-1,0-1.75,0,0,.55-.05,1.48-.05,2.78s0,2.4.05,3.06h1.82c1.61,0,2.62,0,3-.06a4,4,0,0,0,1.15-.29,20.79,20.79,0,0,0,.52-2.09l.1-.07h.48l.08.07a13.91,13.91,0,0,0-.18,1.49c-.05.7-.08,1.31-.08,1.81l-.07.08c-1.26,0-2.91-.06-5-.06l-2.69,0c-.63,0-1.29,0-2,.08l-.08-.08v-.33l.08-.1a4.08,4.08,0,0,0,.67-.37,7.67,7.67,0,0,0,.14-1.73c0-1.11.05-2,.05-2.54v-5.89c0-.49,0-.88,0-1.19a3.89,3.89,0,0,0-.06-.66,1,1,0,0,0-.12-.28.42.42,0,0,0-.21-.13,2.12,2.12,0,0,0-.49-.1l-.75-.06-.08-.07Z"/><path class="cls-1" d="M224.22,142.3l-.9-4.14L221.41,130c-.16-.64-.31-1-.48-1.08a4.22,4.22,0,0,0-1.07-.22l-.08-.08v-.43l.08-.09c.95.05,1.79.08,2.53.08.55,0,1.35,0,2.4-.08l.09.09v.43l-.08.08a9,9,0,0,0-1.33.11.31.31,0,0,0-.22.33c0,.14.07.58.2,1.32s.25,1.33.36,1.79l1.55,6.88,2.45-6.1c.65-1.62,1.28-3.3,1.9-5.07h.63q.79,2.49,1.64,4.83l2.33,6.47,1.68-5.92c.18-.63.39-1.44.64-2.45a14.82,14.82,0,0,0,.38-1.76.31.31,0,0,0-.25-.33,8.4,8.4,0,0,0-1.43-.1l-.08-.09v-.43l.08-.08,2,.08,2.07-.08.08.08v.44l-.08.07a2.48,2.48,0,0,0-.76.11.88.88,0,0,0-.33.26,4.06,4.06,0,0,0-.39,1l-.58,1.85-1,3.34c-.14.48-.41,1.46-.8,2.93l-1.1,4.11h-1q-1-3.08-1.71-4.92l-2.26-6.12-2,4.9-1.06,2.78c-.28.73-.5,1.33-.67,1.79l-.55,1.57Z"/><path class="cls-1" d="M240.59,128.17l.08-.07,4.35.06q3.25,0,5.79-.06l.05.07a17.36,17.36,0,0,0-.37,3l-.05.08H250l-.09-.08a.81.81,0,0,0,0-.15,9.21,9.21,0,0,0-.13-1.61A5.11,5.11,0,0,0,248,129c-.74-.06-1.29-.09-1.66-.09s-1.19,0-2,.11l0,1.59,0,1.81,0,2c.71,0,1.37.06,2,.06s1.12,0,1.53-.06a2.26,2.26,0,0,0,.72-.13.4.4,0,0,0,.16-.25,5.26,5.26,0,0,0,.09-.65l0-.61.08-.08h.45l.08.08c0,.72,0,1.44-.05,2.17l.05,2.23-.08.08h-.45l-.08-.08-.07-.59a7.15,7.15,0,0,0-.13-.83.44.44,0,0,0-.18-.23,2,2,0,0,0-.74-.16c-.4,0-.94-.06-1.64-.06-.38,0-1,0-1.75,0,0,.55-.05,1.48-.05,2.78s0,2.4.05,3.06h1.82c1.61,0,2.61,0,3-.06a4.13,4.13,0,0,0,1.15-.29c.06-.15.15-.5.29-1.05s.21-.9.23-1l.1-.07h.48l.08.07a13.91,13.91,0,0,0-.18,1.49c-.05.7-.08,1.31-.08,1.81l-.07.08c-1.26,0-2.92-.06-5-.06l-2.7,0c-.63,0-1.28,0-2,.08l-.08-.08v-.33l.08-.1a4.65,4.65,0,0,0,.67-.37,7.67,7.67,0,0,0,.14-1.73c0-1.11.05-2,.05-2.54v-5.89c0-.49,0-.88,0-1.19a2.9,2.9,0,0,0-.07-.66.77.77,0,0,0-.11-.28.42.42,0,0,0-.21-.13,2.12,2.12,0,0,0-.49-.1l-.75-.06-.08-.07Z"/><path class="cls-1" d="M252.64,128.17l.08-.07,2.83.08,2.85-.08.08.07v.49l-.08.07-1.06.06a1.35,1.35,0,0,0-.54.15.7.7,0,0,0-.22.51,8,8,0,0,0-.06,1.12v6.66c0,1.1,0,1.87,0,2.3l.05,1.72h2c1.61,0,2.62,0,3-.06a4.13,4.13,0,0,0,1.15-.29,7.46,7.46,0,0,0,.31-1.14c.14-.59.21-.94.22-1l.09-.08h.48l.07.08c-.05.26-.1.78-.16,1.54s-.09,1.37-.09,1.84l-.08.08c-1.25,0-2.9-.06-4.94-.06l-2.9,0c-.66,0-1.34,0-2,.08l-.08-.08v-.33l.08-.1a3.88,3.88,0,0,0,.67-.38,6.67,6.67,0,0,0,.13-1.28c0-.81.06-1.78.06-2.92v-4.25l0-1.93c0-.76,0-1.24-.05-1.46a.93.93,0,0,0-.14-.44.79.79,0,0,0-.37-.18,9.66,9.66,0,0,0-1.31-.11l-.08-.07Z"/><path class="cls-1" d="M265,128.17l.08-.07,2.84.08,2.85-.08.08.07v.49l-.08.07-1.06.06a1.35,1.35,0,0,0-.54.15.7.7,0,0,0-.22.51,8,8,0,0,0-.06,1.12l0,2.28v4.38c0,1.1,0,1.87,0,2.3l.05,1.72h2c1.62,0,2.62,0,3-.06a4.2,4.2,0,0,0,1.16-.29,7.46,7.46,0,0,0,.31-1.14,8.54,8.54,0,0,0,.21-1l.09-.08h.49l.07.08a14.58,14.58,0,0,0-.16,1.54c-.06.76-.09,1.37-.09,1.84l-.08.08q-1.87-.06-4.95-.06l-2.89,0c-.66,0-1.34,0-2,.08l-.07-.08v-.33l.07-.1a4.23,4.23,0,0,0,.68-.38A6.27,6.27,0,0,0,267,140c.05-.81.07-1.78.07-2.92v-4.25l0-1.93c0-.76,0-1.24-.06-1.46a.83.83,0,0,0-.14-.44.74.74,0,0,0-.36-.18,10.07,10.07,0,0,0-1.32-.11l-.08-.07Z"/><path class="cls-1" d="M277.81,128.17l.08-.07,4.35.06q3.25,0,5.79-.06l.05.07a17.59,17.59,0,0,0-.36,3l-.06.08h-.49l-.09-.08a.81.81,0,0,0,0-.15,9.21,9.21,0,0,0-.13-1.61,5.11,5.11,0,0,0-1.73-.36c-.74-.06-1.29-.09-1.66-.09s-1.19,0-2,.11l0,1.59,0,1.81,0,2c.71,0,1.37.06,2,.06s1.12,0,1.53-.06a2.26,2.26,0,0,0,.72-.13.4.4,0,0,0,.16-.25,5.26,5.26,0,0,0,.09-.65l0-.61.08-.08h.46l.07.08c0,.72,0,1.44,0,2.17l0,2.23-.07.08h-.46l-.08-.08-.07-.59a7.15,7.15,0,0,0-.13-.83.44.44,0,0,0-.18-.23,1.91,1.91,0,0,0-.74-.16c-.4,0-.94-.06-1.64-.06-.38,0-1,0-1.75,0,0,.55-.05,1.48-.05,2.78s0,2.4.05,3.06h1.82c1.61,0,2.61,0,3-.06a4.13,4.13,0,0,0,1.15-.29,9.36,9.36,0,0,0,.29-1.05c.14-.56.21-.9.23-1l.1-.07h.48l.08.07a13.91,13.91,0,0,0-.18,1.49c0,.7-.08,1.31-.08,1.81l-.07.08c-1.26,0-2.92-.06-5-.06l-2.7,0c-.62,0-1.28,0-2,.08l-.08-.08v-.33l.08-.1a4.65,4.65,0,0,0,.67-.37,7.67,7.67,0,0,0,.14-1.73c0-1.11.05-2,.05-2.54v-5.89c0-.49,0-.88,0-1.19a2.9,2.9,0,0,0-.07-.66.77.77,0,0,0-.11-.28.42.42,0,0,0-.21-.13,2.12,2.12,0,0,0-.49-.1l-.75-.06-.08-.07Z"/><path class="cls-1" d="M289.91,128.17l.08-.07c1.21.05,2.15.08,2.82.08s1.76,0,3-.07l1,0c1.67,0,2.8.3,3.4.91a3,3,0,0,1,.89,2.16,3.38,3.38,0,0,1-.43,1.64,3.82,3.82,0,0,1-1.29,1.37,6.4,6.4,0,0,1-2.35.86c.18.26.52.71,1,1.34l1.41,1.87c.45.61.94,1.26,1.47,1.94a6.1,6.1,0,0,0,1,1.16,1.25,1.25,0,0,0,.39.17,3.19,3.19,0,0,0,.52,0l.08.08v.46l-.09.09a9.17,9.17,0,0,0-1.13-.06c-.47,0-1,0-1.54.06-.45-.55-1.17-1.52-2.15-2.88q-1.71-2.39-3.49-4.42l.1-.3.8,0a4,4,0,0,0,2.69-.83,2.82,2.82,0,0,0,1-2.28,2.35,2.35,0,0,0-.87-2,3.84,3.84,0,0,0-2.36-.67,6.66,6.66,0,0,0-2,.29,19.94,19.94,0,0,0-.15,3.72v6.52c0,.75,0,1.23.06,1.45a1,1,0,0,0,.15.44.74.74,0,0,0,.36.18,8,8,0,0,0,1.32.12l.08.06v.49l-.08.08-1.75-.06-1.1,0-2.83.08-.08-.08v-.49l.08-.06a11.29,11.29,0,0,0,1.23-.1.84.84,0,0,0,.41-.16.79.79,0,0,0,.17-.4,10.35,10.35,0,0,0,.07-1.37v-6.68l0-1.93c0-.76,0-1.24-.05-1.46a.93.93,0,0,0-.14-.44.8.8,0,0,0-.36-.18,10.07,10.07,0,0,0-1.32-.11l-.08-.07Z"/><path class="cls-1" d="M302.81,129l-.09-.09v-.41l.09-.09,2.81-.47a4,4,0,0,1,.58.53,9.21,9.21,0,0,1,.82,1.18c.36.58.82,1.39,1.39,2.42s1.12,2.07,1.64,3.11l1-1.61,1.14-1.9,2.1-3.6c.26,0,.51,0,.76,0l.69,0,.08.08v.19c-.33.36-.84,1-1.54,2s-1.21,1.7-1.55,2.24-.76,1.21-1.25,2a11.57,11.57,0,0,0-.82,1.47,2.51,2.51,0,0,0-.07.59v2.94a9.32,9.32,0,0,0,.07,1.21.93.93,0,0,0,.15.44.75.75,0,0,0,.35.18,10.07,10.07,0,0,0,1.32.11l.08.06v.49l-.08.08-1.75-.06-1.1,0-2.83.08-.08-.08v-.49l.08-.06a11.06,11.06,0,0,0,1.24-.1.84.84,0,0,0,.4-.16.67.67,0,0,0,.16-.36,7.34,7.34,0,0,0,.07-1.12l0-1.69v-1.89a27.15,27.15,0,0,0-1.46-2.57l-.87-1.42c-.28-.44-.63-1-1.05-1.57a8.87,8.87,0,0,0-1-1.22,1.59,1.59,0,0,0-.54-.37A4.71,4.71,0,0,0,302.81,129Z"/><path class="cls-1" d="M31.35,115.38l-.87,2.12a23.5,23.5,0,0,1-10.84,2.59q-8.26,0-13.42-4.69a15.81,15.81,0,0,1-5.15-12.26A16.13,16.13,0,0,1,3.64,94a15.92,15.92,0,0,1,6.79-5.83,22.53,22.53,0,0,1,9.48-1.94,29,29,0,0,1,6,.64,25.22,25.22,0,0,1,5,1.54l.16.23a28.88,28.88,0,0,0-1,6.33l-.16.18H28.83L28.65,95l-.23-3.89a12.52,12.52,0,0,0-4-2.07,16.53,16.53,0,0,0-4.93-.74A14.25,14.25,0,0,0,12.53,90a11.48,11.48,0,0,0-4.76,4.8,16.05,16.05,0,0,0-1.69,7.7,15.72,15.72,0,0,0,2,8,13.53,13.53,0,0,0,5.43,5.31,16.74,16.74,0,0,0,8,1.85,19.2,19.2,0,0,0,3.91-.39,14.85,14.85,0,0,0,3.12-1A14,14,0,0,0,31,114.9Z"/><path class="cls-1" d="M34,86.93q5.84.18,6.54.18t6.56-.18l.19.16v1.14l-.19.16c-1.05,0-1.86.08-2.43.14a3,3,0,0,0-1.25.34,1.61,1.61,0,0,0-.51,1.18,19,19,0,0,0-.13,2.57l0,5.26v3.2c3.34.1,6.5.14,9.49.14,4.08,0,7.19,0,9.33-.14v-3.2l-.05-4.46a32.3,32.3,0,0,0-.13-3.36,2.29,2.29,0,0,0-.33-1,1.63,1.63,0,0,0-.82-.41,20.62,20.62,0,0,0-3.06-.25L57,88.23V87.09l.16-.16q5.85.18,6.56.18t6.56-.18l.19.16v1.14l-.19.16c-1.06,0-1.88.08-2.45.14a2.9,2.9,0,0,0-1.25.34,1.57,1.57,0,0,0-.5,1.18A22.58,22.58,0,0,0,66,92.62l0,5.26v10.59l0,4.46a28.51,28.51,0,0,0,.14,3.34,2.06,2.06,0,0,0,.33,1,1.81,1.81,0,0,0,.82.42,18.6,18.6,0,0,0,3.05.26l.19.14v1.14l-.19.19q-5.85-.2-6.56-.19t-6.56.19l-.16-.19V118.1l.16-.14a24.32,24.32,0,0,0,2.86-.23,2,2,0,0,0,.93-.35,1.85,1.85,0,0,0,.39-.93,18.22,18.22,0,0,0,.16-3.15l.05-4.83v-5.21c-4.52-.1-7.68-.14-9.49-.14s-5,0-9.33.14v5.21l0,4.46a28.51,28.51,0,0,0,.14,3.34,2.06,2.06,0,0,0,.33,1,1.8,1.8,0,0,0,.83.42,18.69,18.69,0,0,0,3,.26l.19.14v1.14l-.19.19q-5.82-.2-6.56-.19t-6.54.19l-.18-.19V118.1L34,118a24.06,24.06,0,0,0,2.84-.23,2.16,2.16,0,0,0,.95-.35,1.77,1.77,0,0,0,.38-.93,21,21,0,0,0,.18-3.15l0-4.83V97.88l0-4.46c0-1.74-.06-2.86-.12-3.36a2.19,2.19,0,0,0-.32-1,1.81,1.81,0,0,0-.84-.41,20.39,20.39,0,0,0-3-.25l-.18-.16V87.09Z"/><path class="cls-1" d="M72.63,119.43l-.21-.19v-1.19l.21-.18a10.14,10.14,0,0,0,2.15-.17,1.81,1.81,0,0,0,.85-.6,17.7,17.7,0,0,0,1.52-2.91L79.56,109l6.22-14.08q1.75-4.14,3.5-8.28h1.48l9.77,23,1.3,3.06c.38.87.82,1.82,1.32,2.84a8.27,8.27,0,0,0,1,1.81,2,2,0,0,0,.7.42,7.9,7.9,0,0,0,1.89.17l.19.18v1.19l-.19.19c-1.62-.14-3.07-.21-4.37-.21l-7.59.21-.18-.19v-1.19l.18-.18a17.65,17.65,0,0,0,3.2-.22.75.75,0,0,0,.64-.79,3.75,3.75,0,0,0-.32-1.32l-2.81-7H82.28l-2.5,5.86a6.9,6.9,0,0,0-.66,2.31.89.89,0,0,0,.62.84,10.34,10.34,0,0,0,3.11.3l.21.18v1.19l-.19.19c-2-.13-3.69-.19-5.17-.19C76,119.24,74.33,119.3,72.63,119.43ZM83.06,106.6H94.63L88.89,92.81Z"/><path class="cls-1" d="M109.4,86.93l2.86.09c1.87.06,3.1.09,3.68.09s2.71-.06,6.57-.18l.18.16v1.14l-.18.16c-1.06,0-1.87.08-2.44.14a3,3,0,0,0-1.25.34,1.65,1.65,0,0,0-.51,1.18,20.81,20.81,0,0,0-.13,2.57l0,5.26v10.59l0,4.46a28.51,28.51,0,0,0,.14,3.34,2.17,2.17,0,0,0,.33,1,1.8,1.8,0,0,0,.84.42,18.56,18.56,0,0,0,3,.26l.18.14v1.14l-.18.19-4-.14c-1.08,0-1.93-.05-2.54-.05s-2.65.06-6.54.19l-.18-.19V118.1l.18-.14a24.06,24.06,0,0,0,2.84-.23,2.16,2.16,0,0,0,1-.35,1.85,1.85,0,0,0,.39-.93,23.19,23.19,0,0,0,.17-3.15l0-4.83V97.88l0-4.46c0-1.74-.06-2.86-.13-3.36a2.19,2.19,0,0,0-.32-1,1.76,1.76,0,0,0-.84-.41,20.39,20.39,0,0,0-3-.25l-.18-.16V87.09Z"/><path class="cls-1" d="M155.74,115.38l-.87,2.12A23.5,23.5,0,0,1,144,120.09q-8.26,0-13.42-4.69a15.78,15.78,0,0,1-5.15-12.26A16.13,16.13,0,0,1,128,94a15.86,15.86,0,0,1,6.79-5.83,22.47,22.47,0,0,1,9.48-1.94,29,29,0,0,1,6,.64,25.22,25.22,0,0,1,5,1.54l.16.23a28.88,28.88,0,0,0-1,6.33l-.16.18h-1.08L153,95l-.23-3.89a12.52,12.52,0,0,0-4-2.07,16.53,16.53,0,0,0-4.93-.74A14.31,14.31,0,0,0,136.91,90a11.51,11.51,0,0,0-4.75,4.8,16.05,16.05,0,0,0-1.69,7.7,15.72,15.72,0,0,0,2,8,13.53,13.53,0,0,0,5.43,5.31,16.74,16.74,0,0,0,8,1.85,19.2,19.2,0,0,0,3.91-.39,14.85,14.85,0,0,0,3.12-1,14,14,0,0,0,2.39-1.39Z"/><path class="cls-1" d="M158.39,86.93c3.88.12,6.07.18,6.54.18s2.69-.06,6.56-.18l.19.16v1.14l-.19.16c-1.05,0-1.86.08-2.43.14a3,3,0,0,0-1.25.34,1.61,1.61,0,0,0-.51,1.18,19,19,0,0,0-.13,2.57l0,5.26v3.2c3.33.1,6.5.14,9.49.14,4.08,0,7.19,0,9.33-.14v-3.2l0-4.46a28.68,28.68,0,0,0-.14-3.36,2.19,2.19,0,0,0-.32-1,1.63,1.63,0,0,0-.82-.41,20.62,20.62,0,0,0-3.06-.25l-.16-.16V87.09l.16-.16q5.85.18,6.56.18t6.56-.18l.19.16v1.14l-.19.16c-1.06,0-1.88.08-2.45.14a2.9,2.9,0,0,0-1.25.34,1.61,1.61,0,0,0-.51,1.18c-.07.62-.12,1.47-.13,2.57l-.05,5.26v10.59l.05,4.46a32.11,32.11,0,0,0,.13,3.34,2.15,2.15,0,0,0,.34,1,1.81,1.81,0,0,0,.82.42,18.47,18.47,0,0,0,3.05.26l.19.14v1.14l-.19.19q-5.85-.2-6.56-.19t-6.56.19l-.16-.19V118.1l.16-.14a23.87,23.87,0,0,0,2.85-.23,2,2,0,0,0,.94-.35,2,2,0,0,0,.39-.93,18.22,18.22,0,0,0,.16-3.15l0-4.83v-5.21c-4.52-.1-7.68-.14-9.49-.14s-5,0-9.33.14v5.21l0,4.46a28.51,28.51,0,0,0,.14,3.34,2.06,2.06,0,0,0,.33,1,1.8,1.8,0,0,0,.83.42,18.69,18.69,0,0,0,3,.26l.19.14v1.14l-.19.19q-5.82-.2-6.56-.19c-.47,0-2.66.06-6.54.19l-.18-.19V118.1l.18-.14a23.61,23.61,0,0,0,2.83-.23,2.06,2.06,0,0,0,.95-.35,1.85,1.85,0,0,0,.39-.93,20.16,20.16,0,0,0,.17-3.15l0-4.83V97.88l0-4.46a32.3,32.3,0,0,0-.13-3.36,2,2,0,0,0-.32-1,1.72,1.72,0,0,0-.83-.41,20.54,20.54,0,0,0-3-.25l-.18-.16V87.09Z"/><path class="cls-1" d="M197,119.43l-.21-.19v-1.19l.21-.18a10.22,10.22,0,0,0,2.15-.17,1.81,1.81,0,0,0,.85-.6,17.7,17.7,0,0,0,1.52-2.91L204,109l6.22-14.08c1.17-2.76,2.34-5.52,3.49-8.28h1.49l9.77,23,1.3,3.06c.38.87.82,1.82,1.32,2.84a8.27,8.27,0,0,0,1,1.81,2,2,0,0,0,.7.42,7.9,7.9,0,0,0,1.89.17l.18.18v1.19l-.18.19c-1.62-.14-3.07-.21-4.37-.21l-7.59.21-.18-.19v-1.19l.18-.18a17.65,17.65,0,0,0,3.2-.22.75.75,0,0,0,.64-.79,4,4,0,0,0-.32-1.32l-2.81-7H206.67l-2.5,5.86a6.9,6.9,0,0,0-.66,2.31.89.89,0,0,0,.62.84,10.34,10.34,0,0,0,3.11.3l.2.18v1.19l-.18.19c-2-.13-3.69-.19-5.17-.19C200.42,119.24,198.72,119.3,197,119.43Zm10.42-12.83H219l-5.74-13.79Z"/><path class="cls-1" d="M233.29,87.09l.18-.16q5.67.18,6.54.18t6.56-.18l.19.16v1.14l-.19.16c-1,0-1.86.08-2.43.14a3,3,0,0,0-1.25.34,1.61,1.61,0,0,0-.51,1.18,19,19,0,0,0-.13,2.57l0,5.26V108c0,2.53,0,4.3,0,5.31l.12,4H247q5.58,0,7-.13a9.71,9.71,0,0,0,2.66-.67,18.18,18.18,0,0,0,.72-2.63c.31-1.37.48-2.16.49-2.38l.21-.18h1.12l.16.18c-.12.61-.25,1.8-.38,3.55s-.19,3.17-.19,4.25l-.19.19c-2.89-.1-6.7-.14-11.41-.14l-6.68-.05c-1.52,0-3.08.06-4.66.19l-.18-.19v-.75l.18-.23a10.63,10.63,0,0,0,1.55-.89,13.83,13.83,0,0,0,.29-3c.1-1.87.15-4.1.15-6.73V97.88l-.05-4.46a33.42,33.42,0,0,0-.12-3.36,2.19,2.19,0,0,0-.32-1,1.81,1.81,0,0,0-.84-.41,20.39,20.39,0,0,0-3-.25l-.18-.16Z"/><path class="cls-1" d="M262.72,87.09l.19-.16c5.22.09,8.57.13,10,.13q7.5,0,13.36-.13l.12.16a37.77,37.77,0,0,0-.85,6.88l-.14.18h-1.12l-.2-.18c0-.14,0-.26,0-.36a22,22,0,0,0-.3-3.71,12.1,12.1,0,0,0-4-.83c-1.7-.13-3-.2-3.83-.2-1.21,0-2.74.09-4.62.25l-.09,3.66L271.23,97l-.07,4.64c1.65.09,3.16.14,4.55.14s2.58,0,3.52-.14a5.75,5.75,0,0,0,1.66-.29,1,1,0,0,0,.37-.57,9.93,9.93,0,0,0,.22-1.5l.08-1.41.19-.19h1.05l.18.19c0,1.66-.07,3.33-.11,5L283,108l-.18.18h-1.05l-.19-.18-.16-1.37a18,18,0,0,0-.29-1.91,1,1,0,0,0-.42-.54,4.7,4.7,0,0,0-1.71-.36,37.11,37.11,0,0,0-3.77-.14c-.89,0-2.23,0-4,.11q-.12,1.92-.12,6.41,0,4.8.12,7.06h4.21q5.55,0,6.95-.13a9.47,9.47,0,0,0,2.65-.67,23.29,23.29,0,0,0,.68-2.43c.31-1.28.49-2.07.54-2.4l.23-.15h1.09l.19.15a30.71,30.71,0,0,0-.41,3.44c-.13,1.63-.19,3-.19,4.18l-.16.19c-2.91-.1-6.72-.14-11.44-.14l-6.22-.05c-1.44,0-2.95.06-4.52.19l-.19-.19v-.75l.19-.23a13,13,0,0,0,1.54-.86,17.51,17.51,0,0,0,.32-4c.08-2.56.13-4.5.13-5.84v-8.4l0-5.19c0-1.13,0-2,0-2.76a9.33,9.33,0,0,0-.16-1.52,1.87,1.87,0,0,0-.27-.64,1,1,0,0,0-.48-.3,4.81,4.81,0,0,0-1.13-.22l-1.73-.14-.19-.16Z"/><path class="cls-1" d="M290.62,87.09l.19-.16q4.19.18,6.51.18,2.58,0,7-.16c1.08,0,1.87,0,2.35,0,3.86,0,6.48.71,7.85,2.11a6.88,6.88,0,0,1,2.06,5,7.88,7.88,0,0,1-1,3.78,8.92,8.92,0,0,1-3,3.16,14.73,14.73,0,0,1-5.42,2q.63.9,2.31,3.09l3.25,4.3q1.57,2.13,3.38,4.49a14.55,14.55,0,0,0,2.33,2.68,2.86,2.86,0,0,0,.91.38,8.11,8.11,0,0,0,1.2.07l.18.18v1.07l-.21.21a21.54,21.54,0,0,0-2.6-.14c-1.09,0-2.27.05-3.55.14q-1.58-1.92-5-6.66-3.94-5.48-8-10.17l.23-.71c.79,0,1.41.07,1.85.07a9.34,9.34,0,0,0,6.2-1.9,6.54,6.54,0,0,0,2.24-5.26,5.37,5.37,0,0,0-2-4.56,8.75,8.75,0,0,0-5.45-1.55,14.8,14.8,0,0,0-4.52.67q-.34.5-.35,8.57v10.59l0,4.46a32.11,32.11,0,0,0,.13,3.34,2.29,2.29,0,0,0,.33,1,1.91,1.91,0,0,0,.84.42,18.56,18.56,0,0,0,3,.26l.18.14v1.14l-.18.19-4-.14c-1.09,0-1.93-.05-2.54-.05s-2.66.06-6.54.19l-.19-.19V118.1l.19-.14a23.82,23.82,0,0,0,2.83-.23,2.16,2.16,0,0,0,.95-.35,1.85,1.85,0,0,0,.39-.93,20.16,20.16,0,0,0,.17-3.15l0-4.83V97.88l0-4.46c0-1.74-.06-2.86-.13-3.36a2.07,2.07,0,0,0-.32-1,1.72,1.72,0,0,0-.83-.41,20.54,20.54,0,0,0-3-.25l-.19-.16Z"/><path class="cls-1" d="M364,87l.2.19V88.3l-.18.16a17.26,17.26,0,0,0-3.12.25,1.38,1.38,0,0,0-.86.61,3.9,3.9,0,0,0-.29,1.66q0,1.23-.12,7v10.54c0,1.53,0,3.25.07,5.17A14.13,14.13,0,0,0,360,117a1.4,1.4,0,0,0,.79.69A14.55,14.55,0,0,0,364,118l.18.16v1.13l-.2.18c-2.49-.14-4.65-.21-6.5-.21q-1.87,0-6.38.21l-.2-.18v-1.1l.18-.19a16.42,16.42,0,0,0,3.12-.25,1.44,1.44,0,0,0,.86-.6,4.05,4.05,0,0,0,.29-1.68c0-.84.07-3.16.12-7V91.71l-7.89,16.51q-3,6.19-5.19,11.66h-.89q-1.29-2.94-2.11-4.71L328.45,92.46v16c0,1.49,0,3.21.06,5.15a13.16,13.16,0,0,0,.28,3.38,1.44,1.44,0,0,0,.8.68,12.83,12.83,0,0,0,3.25.28l.18.18v1.1l-.2.21-1.47-.07c-1.51-.08-2.8-.12-3.88-.12-.49,0-2.31.06-5.47.19l-.18-.19v-1.1l.18-.2a16,16,0,0,0,3.11-.23,1.45,1.45,0,0,0,.86-.62,3.71,3.71,0,0,0,.29-1.62c0-.79.06-3.13.11-7V98c0-1.38,0-3.07-.06-5.06a15.3,15.3,0,0,0-.27-3.46,1.4,1.4,0,0,0-.79-.69,12.83,12.83,0,0,0-3.25-.28l-.18-.18V87.2L322,87c1.06.08,2.47.12,4.26.12s3.14,0,4.39-.12q1.92,4.44,3.68,8l8.67,17.8,7.82-16.31Q354,89.89,355.12,87q2.19.12,4.32.12Q361.36,87.11,364,87Z"/><polygon class="cls-2" points="182.62 3.14 173.45 31.37 143.77 31.37 167.78 48.81 158.61 77.04 182.62 59.59 206.63 77.04 197.46 48.81 221.47 31.37 191.79 31.37 182.62 3.14"/><polygon class="cls-1" points="182.62 3.14 173.45 31.37 182.62 43.99 182.62 3.14"/><polygon class="cls-1" points="143.77 31.37 167.78 48.81 182.62 43.99 143.77 31.37"/><polygon class="cls-1" points="158.61 77.04 182.62 59.59 182.62 43.99 158.61 77.04"/><polygon class="cls-1" points="206.63 77.04 197.46 48.81 182.62 43.99 206.63 77.04"/><polygon class="cls-1" points="221.47 31.37 191.79 31.37 182.62 43.99 221.47 31.37"/></svg>