<svg id="Layer_1" data-name="Layer 1" xmlns="http://www.w3.org/2000/svg" viewBox="0 0 365 146"><defs><style>.cls-1{fill:#010101;}.cls-2{fill:none;stroke:#010101;stroke-miterlimit:10;stroke-width:2.1px;}</style></defs><path class="cls-1" d="M64.8,136.8v.29l0,.12-.48.29a.59.59,0,0,0-.21.16,3.76,3.76,0,0,0-.07.59c0,.35,0,.77,0,1.28a18.07,18.07,0,0,0,.11,1.86l-.06.09a15.22,15.22,0,0,1-5.52,1,9.14,9.14,0,0,1-3.94-.82,6.45,6.45,0,0,1-2.79-2.45,7,7,0,0,1-1-3.85A6.77,6.77,0,0,1,53,130a9,9,0,0,1,6.06-2,12.5,12.5,0,0,1,4.94.93l.07.11a23.91,23.91,0,0,0-.41,2.76l-.08.07h-.45l-.08-.08-.05-1a3.83,3.83,0,0,0-.06-.6,1,1,0,0,0-.21-.23,4.85,4.85,0,0,0-.91-.45,6.89,6.89,0,0,0-1.47-.45,7.92,7.92,0,0,0-1.58-.15,6.55,6.55,0,0,0-3.18.75,4.8,4.8,0,0,0-2.09,2.18,7.06,7.06,0,0,0-.7,3.17,7.67,7.67,0,0,0,.75,3.37,5.88,5.88,0,0,0,2.17,2.43,6.17,6.17,0,0,0,3.29.87,8.74,8.74,0,0,0,1.67-.16,5,5,0,0,0,1.4-.46,5.63,5.63,0,0,0,.09-1.27v-1.08a2.93,2.93,0,0,0-.1-1,.66.66,0,0,0-.49-.27,11.45,11.45,0,0,0-1.67-.1l-.09-.09v-.43l.09-.09.6,0c1,0,1.86.05,2.51.05.37,0,.92,0,1.64-.06Z"/><path class="cls-1" d="M65.91,135.38a8.69,8.69,0,0,1,.42-2.74,6.33,6.33,0,0,1,1.44-2.37,7,7,0,0,1,2.45-1.68,8.5,8.5,0,0,1,3.24-.59,7.59,7.59,0,0,1,5.33,1.82,6.44,6.44,0,0,1,2,5,8.09,8.09,0,0,1-1,4A6.7,6.7,0,0,1,77,141.53a8.36,8.36,0,0,1-4.07,1,7.86,7.86,0,0,1-3-.53,6.05,6.05,0,0,1-2.29-1.6,6.52,6.52,0,0,1-1.38-2.45A8.91,8.91,0,0,1,65.91,135.38Zm2-.64a9.52,9.52,0,0,0,.39,2.58,6.68,6.68,0,0,0,1.16,2.36,4.86,4.86,0,0,0,1.78,1.47,5.64,5.64,0,0,0,5-.22,4.33,4.33,0,0,0,1.8-2.16,8.3,8.3,0,0,0,.62-3.3,8.8,8.8,0,0,0-.7-3.58,4.72,4.72,0,0,0-2-2.33,5.87,5.87,0,0,0-2.89-.72,4.83,4.83,0,0,0-3.76,1.49A6.27,6.27,0,0,0,68,134.74Z"/><path class="cls-1" d="M81.61,128.35l.08-.08c1.62.06,2.56.08,2.81.08s1.16,0,2.82-.08l.07.08v.49l-.07.06-1,.06a1.41,1.41,0,0,0-.54.15c-.11.07-.18.24-.22.51a10,10,0,0,0-.05,1.1l0,2.26v4.34c0,1.09,0,1.85,0,2.28l.05,1.7h2c1.6,0,2.6,0,3-.06a4.13,4.13,0,0,0,1.15-.29,9.14,9.14,0,0,0,.31-1.13c.13-.58.2-.93.21-1l.09-.08h.48l.07.08a13.51,13.51,0,0,0-.17,1.52c0,.76-.08,1.37-.08,1.83l-.08.08c-1.24,0-2.88-.06-4.9-.06l-2.87,0c-.65,0-1.32,0-2,.08l-.08-.08v-.32l.08-.1a4.82,4.82,0,0,0,.67-.38,6.23,6.23,0,0,0,.12-1.27c0-.8.07-1.76.07-2.89V133l0-1.92a13.37,13.37,0,0,0-.05-1.44.82.82,0,0,0-.14-.43A.75.75,0,0,0,83,129a10,10,0,0,0-1.31-.11l-.08-.06Z"/><path class="cls-1" d="M93.83,128.35l.07-.08c1.14.06,1.91.08,2.32.08l4.6-.09a12,12,0,0,1,3.22.36,5.61,5.61,0,0,1,2.23,1.28,6.2,6.2,0,0,1,1.49,2.11,6.69,6.69,0,0,1,.5,2.57,7.7,7.7,0,0,1-.46,2.62,7.46,7.46,0,0,1-1.31,2.32,7.2,7.2,0,0,1-1.93,1.66,7,7,0,0,1-2.18.84,11.79,11.79,0,0,1-2.23.21c-.51,0-1.47,0-2.89-.06l-.92,0c-.45,0-1,0-1.64.08l-.08-.08v-.32l.08-.1a4.67,4.67,0,0,0,.66-.37,7.53,7.53,0,0,0,.14-1.72c0-1.1.06-1.93.06-2.51V131.3c0-.48,0-.88,0-1.18a4.88,4.88,0,0,0-.07-.66.69.69,0,0,0-.12-.27.44.44,0,0,0-.2-.13,2.25,2.25,0,0,0-.49-.1l-.75-.06-.07-.06Zm3.63,12.81a12.19,12.19,0,0,0,2.31.2,7.54,7.54,0,0,0,3.66-.77,4.76,4.76,0,0,0,2-2.27,8.18,8.18,0,0,0,.68-3.39,5.94,5.94,0,0,0-1.48-4.31,6.28,6.28,0,0,0-4.68-1.53,16,16,0,0,0-2.53.2c0,1.07-.08,2.28-.08,3.63V136l0,2.89C97.4,139.45,97.42,140.21,97.46,141.16Z"/><path class="cls-1" d="M109.87,138.77l.08-.08h.48l.08.08a9.64,9.64,0,0,0,.13,1.54,1.27,1.27,0,0,0,.53.59,3.77,3.77,0,0,0,1.19.5,5.47,5.47,0,0,0,1.5.2,4.49,4.49,0,0,0,1.87-.38,3,3,0,0,0,1.29-1.13,3.05,3.05,0,0,0,.46-1.66,2.65,2.65,0,0,0-.22-1.13,1.89,1.89,0,0,0-.62-.77,2.68,2.68,0,0,0-.9-.43,14.23,14.23,0,0,0-1.53-.31c-.65-.11-1.16-.2-1.53-.29a4.91,4.91,0,0,1-1.11-.39,3.16,3.16,0,0,1-.92-.67,3.27,3.27,0,0,1-.59-1,3.81,3.81,0,0,1-.22-1.27,3.94,3.94,0,0,1,1.28-3,4.87,4.87,0,0,1,3.43-1.17,9.14,9.14,0,0,1,1.86.21,7.31,7.31,0,0,1,1.83.63l.07.11a13.55,13.55,0,0,0-.27,2.58l-.09.08h-.51l-.07-.07c0-.79,0-1.28-.06-1.49s-.33-.45-.9-.75a3.92,3.92,0,0,0-1.85-.45,3.78,3.78,0,0,0-1.57.33,2.22,2.22,0,0,0-1.09,1.05,3.15,3.15,0,0,0-.38,1.46,2.26,2.26,0,0,0,.23,1,2,2,0,0,0,.58.71,2.48,2.48,0,0,0,.84.38,17.54,17.54,0,0,0,1.74.32,10.37,10.37,0,0,1,2.53.59,2.78,2.78,0,0,1,1.27,1.11,3.4,3.4,0,0,1,.47,1.82,4.34,4.34,0,0,1-1.7,3.49,6.31,6.31,0,0,1-4.13,1.39,8.3,8.3,0,0,1-3.57-.72l0-.13C109.79,141.25,109.84,140.29,109.87,138.77Z"/><path class="cls-1" d="M138.12,128.3l.09.08v.48l-.08.07a7.42,7.42,0,0,0-1.34.11.59.59,0,0,0-.36.26,1.52,1.52,0,0,0-.13.71c0,.36,0,1.36-.05,3v4.53c0,.65,0,1.39,0,2.21a6.2,6.2,0,0,0,.12,1.44.57.57,0,0,0,.34.3,6.39,6.39,0,0,0,1.39.12l.08.07v.48l-.09.08q-1.59-.09-2.79-.09-.79,0-2.73.09l-.09-.08v-.47l.08-.08a6.55,6.55,0,0,0,1.34-.11.59.59,0,0,0,.36-.26,1.54,1.54,0,0,0,.13-.72c0-.36,0-1.35.05-3v-7.21l-3.39,7.09q-1.28,2.66-2.23,5h-.38c-.36-.85-.67-1.52-.9-2l-4.7-9.75v6.87c0,.64,0,1.37,0,2.21a6.25,6.25,0,0,0,.12,1.45.61.61,0,0,0,.35.29,5.2,5.2,0,0,0,1.39.12l.08.08v.47l-.09.09-.63,0c-.65,0-1.2,0-1.67,0l-2.34.08-.08-.08v-.47l.08-.09a5.92,5.92,0,0,0,1.33-.1.64.64,0,0,0,.37-.26,1.68,1.68,0,0,0,.13-.7c0-.34,0-1.35,0-3V133c0-.6,0-1.32,0-2.18a6.54,6.54,0,0,0-.12-1.48.64.64,0,0,0-.34-.3,5.84,5.84,0,0,0-1.39-.12l-.08-.08v-.47l.09-.09c.45,0,1.06,0,1.82,0s1.35,0,1.89,0c.55,1.27,1.07,2.42,1.58,3.45l3.72,7.64,3.36-7c.91-1.89,1.52-3.25,1.83-4.09.63,0,1.25,0,1.86,0S137.38,128.34,138.12,128.3Z"/><path class="cls-1" d="M139.25,128.27l1.23,0,1.58,0c.23,0,1.16,0,2.82-.08l.08.08v.49l-.08.06-1,.06a1.35,1.35,0,0,0-.53.15.68.68,0,0,0-.22.51,8,8,0,0,0-.05,1.1l0,2.26v6.46a13,13,0,0,0,0,1.43,1,1,0,0,0,.15.44.75.75,0,0,0,.35.18,8.45,8.45,0,0,0,1.31.11l.08.06v.49l-.08.08-1.73-.06-1.09,0-2.81.08-.07-.08v-.49l.07-.06a10.78,10.78,0,0,0,1.22-.1,1,1,0,0,0,.41-.15.79.79,0,0,0,.17-.4,10.09,10.09,0,0,0,.07-1.35V133l0-1.92a12.45,12.45,0,0,0-.06-1.44.83.83,0,0,0-.13-.43.74.74,0,0,0-.36-.18,9.85,9.85,0,0,0-1.31-.11l-.07-.06v-.49Z"/><path class="cls-1" d="M157.3,128.27l.09.09q-.09.88-.09,3.09l-.08.08h-.46l-.08-.09-.1-.91c-.06-.48-.1-.78-.13-.88a.41.41,0,0,0-.14-.24,1.69,1.69,0,0,0-.64-.12,11.09,11.09,0,0,0-1.2,0h-1.86c-.05,1.48-.08,2.33-.08,2.56v5.73l0,1.91c0,.74,0,1.22,0,1.44a.88.88,0,0,0,.14.43.74.74,0,0,0,.36.18,8.35,8.35,0,0,0,1.32.11l.07.06v.49l-.07.08-2.81-.08-2.8.08-.08-.08v-.49l.08-.06a10.78,10.78,0,0,0,1.22-.1.87.87,0,0,0,.4-.15.71.71,0,0,0,.17-.4,7.44,7.44,0,0,0,.07-1.35l0-2.07V131.8c0-.1,0-1-.07-2.56h-1.47c-.6,0-1.12,0-1.56,0s-.69.09-.76.2a3.57,3.57,0,0,0-.19,1.05l-.1.91-.09.09H146l-.08-.08q0-2.37-.09-3.09l.09-.09c1.14.06,3,.08,5.69.08S156.21,128.33,157.3,128.27Z"/><path class="cls-1" d="M158.35,128.27c1.67.06,2.61.08,2.81.08s1.16,0,2.82-.08l.08.08v.49l-.08.06-1,.06a1.35,1.35,0,0,0-.53.15.68.68,0,0,0-.22.51,7.73,7.73,0,0,0-.06,1.1v3.63c1.43,0,2.79.06,4.07.06,1.75,0,3.09,0,4-.06V133l0-1.92q0-1.11-.06-1.44a1.06,1.06,0,0,0-.14-.43.75.75,0,0,0-.35-.18,10.07,10.07,0,0,0-1.32-.11l-.07-.06v-.49l.07-.08c1.68.06,2.62.08,2.82.08s1.16,0,2.82-.08l.08.08v.49l-.08.06-1.06.06a1.35,1.35,0,0,0-.53.15c-.12.07-.19.24-.22.51s0,.63-.06,1.1l0,2.26v4.55l0,1.91c0,.74,0,1.22.06,1.43a1,1,0,0,0,.14.44.74.74,0,0,0,.36.18,8.17,8.17,0,0,0,1.31.11l.08.06v.49l-.08.08-2.82-.08-2.82.08-.07-.08v-.49l.07-.06a10.8,10.8,0,0,0,1.23-.1.87.87,0,0,0,.4-.15.79.79,0,0,0,.17-.4,8.56,8.56,0,0,0,.07-1.35l0-2.07v-2.24q-2.91-.06-4.08-.06c-.8,0-2.13,0-4,.06v4.15a13,13,0,0,0,0,1.43,1,1,0,0,0,.15.44.75.75,0,0,0,.35.18,8.45,8.45,0,0,0,1.31.11l.08.06v.49l-.08.08-2.82-.08-2.81.08-.08-.08v-.49l.08-.06a10.78,10.78,0,0,0,1.22-.1,1,1,0,0,0,.41-.15.72.72,0,0,0,.16-.4,8.12,8.12,0,0,0,.08-1.35V133l0-1.92q0-1.11-.06-1.44a.83.83,0,0,0-.13-.43.74.74,0,0,0-.36-.18,9.85,9.85,0,0,0-1.31-.11l-.08-.06v-.49Z"/><path class="cls-1" d="M194.58,141.17c-.53.37-1.08.79-1.65,1.27a3.69,3.69,0,0,1-.69.06,4.66,4.66,0,0,1-1.76-.36,7.42,7.42,0,0,1-1.87-1.18,8.66,8.66,0,0,1-2.18,1.26,5.85,5.85,0,0,1-1.89.29,3.85,3.85,0,0,1-3-1.19,4,4,0,0,1-1.05-2.73q0-2.64,3.08-4.3a6.76,6.76,0,0,1-.59-2.56,3,3,0,0,1,.14-.9,2.28,2.28,0,0,1,.29-.66,4.4,4.4,0,0,1,.58-.59c.28-.24.54-.47.8-.68a2.84,2.84,0,0,1,.73-.45,2,2,0,0,1,.75-.13,1.73,1.73,0,0,1,1.36.51,1.91,1.91,0,0,1,.46,1.33q0,2.06-2.86,4a16.57,16.57,0,0,0,1.87,2.81,13.73,13.73,0,0,0,2.2,2.3,3.52,3.52,0,0,0,1-2.4,2.9,2.9,0,0,0-.12-.89.91.91,0,0,0-.32-.48,1.46,1.46,0,0,0-.7-.12l-1.05,0-.09-.12.64-.94a11.63,11.63,0,0,0,1.68.09c.39,0,1,0,1.76,0s1.55,0,2.25,0l.09.09a6.86,6.86,0,0,0-.19,1.19l-.1.08a15.49,15.49,0,0,0-2.44-.19h-.29a3.17,3.17,0,0,1,.12.88,4.85,4.85,0,0,1-1.64,3.38,6,6,0,0,0,3.53,1.29,1.42,1.42,0,0,0,.44-.06,3.74,3.74,0,0,0,.6-.29l.12.06.07.3Zm-6.61-.71a33.47,33.47,0,0,1-2.62-3,24.65,24.65,0,0,1-1.5-2.37,4,4,0,0,0-1.33,1.4,3.13,3.13,0,0,0-.35,1.45,3.42,3.42,0,0,0,1,2.4,3.1,3.1,0,0,0,2.37,1.06A4,4,0,0,0,188,140.46Zm-3.11-7a5.25,5.25,0,0,0,1.32-1.34,2.58,2.58,0,0,0,.52-1.46,1.53,1.53,0,0,0-.29-.89,1,1,0,0,0-.79-.4,1.15,1.15,0,0,0-.88.41,1.78,1.78,0,0,0-.39,1.25A7.75,7.75,0,0,0,184.86,133.49Z"/><path class="cls-1" d="M206.44,128.35v.49l-.07.06-1.05.06a1.35,1.35,0,0,0-.54.15c-.11.07-.18.24-.22.51a10,10,0,0,0-.05,1.1l0,2.26V140a9.38,9.38,0,0,1-.28,2.54,5.37,5.37,0,0,1-2.38,3.07,3,3,0,0,1-1.45.41A2,2,0,0,1,200,146l0-.79q0-.24,0-.72l.19-.13a1.7,1.7,0,0,0,1.05.37,1.57,1.57,0,0,0,.79-.18,1,1,0,0,0,.44-.49,4,4,0,0,0,.15-1.13c0-.55,0-1,0-1.42V133l0-1.92a10.44,10.44,0,0,0-.06-1.44.92.92,0,0,0-.14-.43.75.75,0,0,0-.35-.18,9.85,9.85,0,0,0-1.31-.11l-.07-.06v-.49l.07-.08c1.65.06,2.59.08,2.81.08s1.17,0,2.82-.08Z"/><path class="cls-1" d="M207.62,128.35l.08-.08c2.24,0,3.68.06,4.31.06,2.15,0,4.06,0,5.74-.06l0,.08a17.14,17.14,0,0,0-.36,3l-.06.08h-.48l-.09-.08a.92.92,0,0,0,0-.16,10.25,10.25,0,0,0-.12-1.59,5.64,5.64,0,0,0-1.72-.36c-.73-.05-1.28-.08-1.64-.08-.52,0-1.18,0-2,.11l0,1.57,0,1.8,0,2q1,.06,1.95.06c.6,0,1.1,0,1.51-.06a2.69,2.69,0,0,0,.71-.12.44.44,0,0,0,.16-.25,2.88,2.88,0,0,0,.09-.64l0-.61.08-.08h.45l.08.08c0,.71,0,1.43,0,2.15l0,2.21-.08.08h-.45l-.08-.08-.07-.59c-.06-.46-.1-.73-.12-.82a.49.49,0,0,0-.18-.23,1.91,1.91,0,0,0-.74-.16q-.58-.06-1.62-.06c-.38,0-1,0-1.73,0,0,.55-.06,1.47-.06,2.75s0,2.39.06,3h1.8c1.59,0,2.59,0,3-.06a4,4,0,0,0,1.14-.29c0-.15.15-.5.29-1s.21-.89.23-1l.09-.07h.48l.07.07c-.05.28-.11.77-.17,1.47s-.08,1.3-.08,1.8l-.07.08c-1.25,0-2.89-.06-4.91-.06l-2.67,0c-.62,0-1.27,0-1.94.08l-.08-.08v-.32l.08-.1a6.54,6.54,0,0,0,.66-.37,8.3,8.3,0,0,0,.14-1.72c0-1.1,0-1.93,0-2.51V131.3c0-.48,0-.88,0-1.18a3.63,3.63,0,0,0-.07-.66.7.7,0,0,0-.11-.27.42.42,0,0,0-.21-.13,2.13,2.13,0,0,0-.48-.1l-.75-.06-.08-.06Z"/><path class="cls-1" d="M223.81,142.34l-.89-4.1-1.9-8.08c-.15-.64-.3-1-.47-1.08a4.79,4.79,0,0,0-1.06-.21l-.07-.07v-.44l.07-.09c.95.06,1.78.08,2.51.08.54,0,1.33,0,2.37-.08l.09.09v.44l-.08.07a9,9,0,0,0-1.31.11.31.31,0,0,0-.22.33c0,.13.07.57.2,1.3s.25,1.32.35,1.78l1.54,6.81,2.43-6q.94-2.39,1.88-5h.62c.53,1.64,1.07,3.24,1.62,4.78l2.31,6.4,1.67-5.86c.17-.62.38-1.42.63-2.43a13.46,13.46,0,0,0,.37-1.73.3.3,0,0,0-.24-.33,8.35,8.35,0,0,0-1.42-.1l-.08-.08v-.44l.08-.08c1.11.06,1.79.08,2,.08s.89,0,2-.08l.08.08v.45l-.08.06a2.45,2.45,0,0,0-.75.11.85.85,0,0,0-.32.25,4.25,4.25,0,0,0-.39,1l-.57,1.83-1,3.3c-.14.48-.4,1.45-.79,2.91l-1.09,4.07h-1c-.68-2-1.25-3.66-1.69-4.87L229,131.41l-2,4.85L226,139c-.27.72-.49,1.32-.65,1.78l-.54,1.55Z"/><path class="cls-1" d="M240,128.35l.08-.08c2.24,0,3.68.06,4.31.06,2.14,0,4.06,0,5.73-.06l.05.08a17.14,17.14,0,0,0-.36,3l-.06.08h-.48l-.09-.08a.92.92,0,0,0,0-.16,9.14,9.14,0,0,0-.13-1.59,5.5,5.5,0,0,0-1.71-.36c-.73-.05-1.28-.08-1.65-.08-.52,0-1.18,0-2,.11l0,1.57,0,1.8,0,2c.71,0,1.36.06,2,.06s1.1,0,1.51-.06a2.79,2.79,0,0,0,.71-.12.44.44,0,0,0,.16-.25,5,5,0,0,0,.09-.64l0-.61.08-.08h.45l.08.08c0,.71,0,1.43-.05,2.15l.05,2.21-.08.08h-.45l-.08-.08-.07-.59a7.22,7.22,0,0,0-.13-.82.39.39,0,0,0-.18-.23,1.85,1.85,0,0,0-.73-.16q-.58-.06-1.62-.06c-.38,0-1,0-1.74,0,0,.55,0,1.47,0,2.75s0,2.39,0,3h1.81c1.59,0,2.58,0,3-.06a4,4,0,0,0,1.14-.29,9.64,9.64,0,0,0,.29-1c.14-.55.21-.89.23-1l.1-.07h.47l.08.07a12,12,0,0,0-.17,1.47q-.09,1.05-.09,1.8l-.06.08c-1.25,0-2.89-.06-4.91-.06l-2.67,0c-.63,0-1.27,0-2,.08l-.08-.08v-.32l.08-.1a4.67,4.67,0,0,0,.66-.37,6.88,6.88,0,0,0,.14-1.72c0-1.1.06-1.93.06-2.51v-3.6l0-2.23c0-.48,0-.88,0-1.18a4.88,4.88,0,0,0-.07-.66.69.69,0,0,0-.12-.27.44.44,0,0,0-.2-.13,2.25,2.25,0,0,0-.49-.1l-.74-.06-.08-.06Z"/><path class="cls-1" d="M252,128.35l.08-.08c1.62.06,2.56.08,2.81.08s1.16,0,2.81-.08l.08.08v.49l-.08.06-1,.06a1.35,1.35,0,0,0-.54.15c-.11.07-.18.24-.22.51a10,10,0,0,0,0,1.1l0,2.26v4.34c0,1.09,0,1.85,0,2.28l0,1.7h2c1.6,0,2.59,0,3-.06A4,4,0,0,0,262,141a6.47,6.47,0,0,0,.31-1.13,8.18,8.18,0,0,0,.21-1l.09-.08h.48l.07.08c-.05.26-.1.77-.16,1.52s-.08,1.37-.08,1.83l-.08.08c-1.24,0-2.88-.06-4.9-.06l-2.87,0c-.65,0-1.32,0-2,.08l-.08-.08v-.32l.08-.1a4.82,4.82,0,0,0,.67-.38,7.24,7.24,0,0,0,.12-1.27c0-.8.06-1.76.06-2.89V133l0-1.92a13.37,13.37,0,0,0,0-1.44.92.92,0,0,0-.14-.43.74.74,0,0,0-.36-.18,9.62,9.62,0,0,0-1.3-.11l-.08-.06Z"/><path class="cls-1" d="M264.23,128.35l.08-.08c1.62.06,2.56.08,2.81.08s1.16,0,2.82-.08l.08.08v.49l-.08.06-1.05.06a1.35,1.35,0,0,0-.53.15.68.68,0,0,0-.22.51,7.73,7.73,0,0,0-.06,1.1l0,2.26v4.34c0,1.09,0,1.85,0,2.28l.05,1.7h2c1.59,0,2.59,0,3-.06a4.13,4.13,0,0,0,1.15-.29,7.58,7.58,0,0,0,.31-1.13c.13-.58.2-.93.21-1l.09-.08h.48l.07.08a12,12,0,0,0-.16,1.52q-.09,1.14-.09,1.83l-.08.08c-1.24,0-2.87-.06-4.9-.06l-2.86,0c-.66,0-1.33,0-2,.08l-.07-.08v-.32l.07-.1a4.82,4.82,0,0,0,.67-.38,6.23,6.23,0,0,0,.12-1.27c.05-.8.07-1.76.07-2.89V133l0-1.92q0-1.11-.06-1.44a.94.94,0,0,0-.13-.43.8.8,0,0,0-.36-.18,9.85,9.85,0,0,0-1.31-.11l-.08-.06Z"/><path class="cls-1" d="M276.87,128.35l.08-.08c2.24,0,3.68.06,4.31.06,2.15,0,4.06,0,5.74-.06l0,.08a17.14,17.14,0,0,0-.36,3l-.06.08h-.48l-.09-.08a.92.92,0,0,0,0-.16,10.25,10.25,0,0,0-.12-1.59,5.64,5.64,0,0,0-1.72-.36c-.73-.05-1.28-.08-1.64-.08-.52,0-1.18,0-2,.11l0,1.57,0,1.8,0,2c.71,0,1.36.06,2,.06s1.11,0,1.51-.06a2.69,2.69,0,0,0,.71-.12.44.44,0,0,0,.16-.25,2.88,2.88,0,0,0,.09-.64l0-.61.08-.08h.45l.08.08c0,.71,0,1.43-.05,2.15l.05,2.21-.08.08H285l-.08-.08-.07-.59c-.05-.46-.1-.73-.12-.82a.49.49,0,0,0-.18-.23,1.91,1.91,0,0,0-.74-.16q-.59-.06-1.62-.06c-.38,0-1,0-1.74,0,0,.55,0,1.47,0,2.75s0,2.39,0,3h1.81c1.59,0,2.59,0,3-.06a4,4,0,0,0,1.14-.29c.05-.15.15-.5.29-1s.21-.89.23-1l.09-.07h.48l.08.07a13.69,13.69,0,0,0-.18,1.47c-.05.7-.08,1.3-.08,1.8l-.07.08c-1.25,0-2.89-.06-4.91-.06l-2.67,0c-.62,0-1.27,0-1.94.08l-.08-.08v-.32l.08-.1a6.54,6.54,0,0,0,.66-.37,8.3,8.3,0,0,0,.14-1.72c0-1.1.05-1.93.05-2.51V131.3c0-.48,0-.88,0-1.18a3.63,3.63,0,0,0-.07-.66.7.7,0,0,0-.11-.27.42.42,0,0,0-.21-.13,2.13,2.13,0,0,0-.48-.1l-.75-.06-.08-.06Z"/><path class="cls-1" d="M288.85,128.35l.08-.08c1.2.06,2.13.08,2.8.08s1.74,0,3-.07h1c1.66,0,2.78.3,3.37.9a3,3,0,0,1,.89,2.14,3.35,3.35,0,0,1-.44,1.62,3.81,3.81,0,0,1-1.27,1.36,6.29,6.29,0,0,1-2.33.85l1,1.33,1.4,1.84c.45.61.93,1.25,1.45,1.93a6.38,6.38,0,0,0,1,1.15,1.19,1.19,0,0,0,.39.16,3.19,3.19,0,0,0,.52,0l.07.08v.46l-.08.09a9.11,9.11,0,0,0-1.12-.06c-.47,0-1,0-1.52.06-.46-.55-1.17-1.5-2.14-2.86-1.12-1.57-2.27-3-3.45-4.37l.1-.3.79,0a4,4,0,0,0,2.66-.82,2.8,2.8,0,0,0,1-2.26,2.29,2.29,0,0,0-.87-1.95,3.7,3.7,0,0,0-2.34-.67,6.5,6.5,0,0,0-1.94.29,19.4,19.4,0,0,0-.15,3.68v6.46c0,.74,0,1.22.06,1.43a1,1,0,0,0,.14.44.8.8,0,0,0,.36.18,8.31,8.31,0,0,0,1.31.11l.08.06v.49l-.08.08-1.73-.06-1.09,0-2.81.08-.08-.08v-.49l.08-.06a11,11,0,0,0,1.22-.1,1,1,0,0,0,.41-.15.72.72,0,0,0,.16-.4,8.12,8.12,0,0,0,.08-1.35V133l0-1.92q0-1.11-.06-1.44a.94.94,0,0,0-.13-.43.86.86,0,0,0-.36-.18,10,10,0,0,0-1.31-.11l-.08-.06Z"/><path class="cls-1" d="M301.63,129.2l-.09-.09v-.41l.09-.09,2.78-.46a3.36,3.36,0,0,1,.57.52,9.68,9.68,0,0,1,.82,1.17q.52.85,1.38,2.4c.56,1,1.1,2,1.62,3.08l1-1.6,1.13-1.88,2.08-3.57a6.44,6.44,0,0,0,.75,0c.15,0,.37,0,.68,0l.08.08v.19c-.33.36-.83,1-1.52,2s-1.2,1.68-1.54,2.22-.75,1.2-1.24,2a11.75,11.75,0,0,0-.81,1.46,2.46,2.46,0,0,0-.06.58v2.92a7.93,7.93,0,0,0,.06,1.19,1,1,0,0,0,.15.44.67.67,0,0,0,.35.17,8.13,8.13,0,0,0,1.3.11l.08.06v.49l-.08.08-1.73-.06-1.09,0-2.8.08-.08-.08v-.49l.08-.06a10.32,10.32,0,0,0,1.22-.1.92.92,0,0,0,.4-.15.67.67,0,0,0,.16-.36,7.17,7.17,0,0,0,.07-1.11l0-1.68v-1.86a25.6,25.6,0,0,0-1.44-2.55l-.87-1.4c-.27-.44-.62-1-1-1.56a9.28,9.28,0,0,0-1-1.21,1.75,1.75,0,0,0-.53-.37A5.93,5.93,0,0,0,301.63,129.2Z"/><path class="cls-1" d="M32.83,115.68l-.86,2.1a23.28,23.28,0,0,1-10.73,2.56q-8.17,0-13.28-4.64a15.64,15.64,0,0,1-5.11-12.14,16,16,0,0,1,2.55-9,15.79,15.79,0,0,1,6.72-5.77,22.26,22.26,0,0,1,9.39-1.92,27.75,27.75,0,0,1,6,.64A24.77,24.77,0,0,1,32.38,89l.16.23a28.67,28.67,0,0,0-1,6.27l-.16.18H30.34l-.18-.18-.22-3.85a12.48,12.48,0,0,0-4-2.05,16.2,16.2,0,0,0-4.88-.73,14.11,14.11,0,0,0-6.86,1.64,11.36,11.36,0,0,0-4.71,4.75,15.89,15.89,0,0,0-1.68,7.62,15.68,15.68,0,0,0,2,8,13.6,13.6,0,0,0,5.38,5.26,16.56,16.56,0,0,0,8,1.83,19.54,19.54,0,0,0,3.87-.38,14.53,14.53,0,0,0,3.09-1,13.18,13.18,0,0,0,2.37-1.38Z"/><path class="cls-1" d="M35.46,87.51q5.77.18,6.48.18c.5,0,2.66-.06,6.5-.18l.18.16V88.8l-.18.16c-1,0-1.85.07-2.41.13a3,3,0,0,0-1.24.34,1.64,1.64,0,0,0-.51,1.17,20.8,20.8,0,0,0-.12,2.55l0,5.2v3.17c3.31.1,6.44.14,9.4.14,4,0,7.13,0,9.24-.14V98.35l0-4.41a31.86,31.86,0,0,0-.13-3.33,2.4,2.4,0,0,0-.32-1,1.59,1.59,0,0,0-.82-.4,18.72,18.72,0,0,0-3-.25l-.16-.16V87.67l.16-.16q5.79.18,6.5.18t6.5-.18l.18.16V88.8L71.4,89c-1.06,0-1.87.07-2.44.13a3,3,0,0,0-1.23.34,1.6,1.6,0,0,0-.5,1.17,25.27,25.27,0,0,0-.13,2.55l0,5.2v10.49l0,4.42a31.44,31.44,0,0,0,.13,3.3,2.24,2.24,0,0,0,.33,1,1.82,1.82,0,0,0,.81.42,18.38,18.38,0,0,0,3,.26l.18.13v1.14l-.18.18c-3.87-.12-6-.18-6.5-.18s-2.65.06-6.5.18l-.16-.18v-1.14l.16-.13a23.61,23.61,0,0,0,2.83-.23,2,2,0,0,0,.93-.35,1.86,1.86,0,0,0,.38-.92,17.94,17.94,0,0,0,.16-3.12l0-4.78v-5.16q-6.7-.14-9.4-.14t-9.24.14v5.16l0,4.42a30.42,30.42,0,0,0,.14,3.3,2.12,2.12,0,0,0,.33,1,1.8,1.8,0,0,0,.83.42,18.17,18.17,0,0,0,3,.26l.18.13v1.14l-.18.18q-5.77-.18-6.5-.18t-6.48.18l-.18-.18v-1.14l.18-.13a23.35,23.35,0,0,0,2.81-.23,2.1,2.1,0,0,0,.94-.35,1.69,1.69,0,0,0,.38-.92,19.87,19.87,0,0,0,.17-3.12l0-4.78V98.35l0-4.41q0-2.58-.12-3.33a2.14,2.14,0,0,0-.32-1,1.63,1.63,0,0,0-.83-.4,18.64,18.64,0,0,0-3-.25l-.18-.16V87.67Z"/><path class="cls-1" d="M73.71,119.69l-.2-.18v-1.18l.2-.18a10.73,10.73,0,0,0,2.13-.17,1.91,1.91,0,0,0,.85-.59,18.75,18.75,0,0,0,1.5-2.89l2.38-5.16,6.16-14c1.16-2.73,2.32-5.47,3.46-8.2h1.47l9.67,22.74,1.3,3c.37.86.81,1.8,1.3,2.81a8.51,8.51,0,0,0,1,1.79,2,2,0,0,0,.7.42,8.26,8.26,0,0,0,1.87.17l.18.18v1.18l-.18.18c-1.6-.14-3-.21-4.33-.21-2.5.08-5,.14-7.52.21l-.18-.18v-1.18l.18-.18a17.3,17.3,0,0,0,3.17-.22.75.75,0,0,0,.64-.78,3.88,3.88,0,0,0-.32-1.31l-2.78-6.91H83.26l-2.46,5.8a6.78,6.78,0,0,0-.66,2.28.88.88,0,0,0,.61.84,10.49,10.49,0,0,0,3.08.3l.2.18v1.18l-.18.18c-1.94-.12-3.65-.18-5.11-.18C77.08,119.51,75.4,119.57,73.71,119.69ZM84,107H95.49L89.81,93.33Z"/><path class="cls-1" d="M110.12,87.51l2.83.09c1.86.06,3.07.09,3.65.09s2.68-.06,6.5-.18l.18.16V88.8l-.18.16c-1,0-1.85.07-2.41.13a3,3,0,0,0-1.24.34,1.64,1.64,0,0,0-.51,1.17,20.8,20.8,0,0,0-.12,2.55l0,5.2v10.49l0,4.42c0,1.7.07,2.8.14,3.3a2.12,2.12,0,0,0,.33,1,1.8,1.8,0,0,0,.83.42,18.17,18.17,0,0,0,3,.26l.18.13v1.14l-.18.18-4-.14c-1.07,0-1.91,0-2.51,0s-2.63.06-6.48.18l-.18-.18v-1.14l.18-.13a23.35,23.35,0,0,0,2.81-.23,2.1,2.1,0,0,0,.94-.35,1.77,1.77,0,0,0,.39-.92,22.87,22.87,0,0,0,.17-3.12l0-4.78V98.35l0-4.41c0-1.72-.06-2.83-.12-3.33a2.14,2.14,0,0,0-.32-1,1.63,1.63,0,0,0-.83-.4,18.64,18.64,0,0,0-3-.25l-.18-.16V87.67Z"/><path class="cls-1" d="M156,115.68l-.86,2.1a23.28,23.28,0,0,1-10.73,2.56q-8.17,0-13.28-4.64A15.61,15.61,0,0,1,126,103.56a16,16,0,0,1,2.55-9,15.73,15.73,0,0,1,6.72-5.77,22.26,22.26,0,0,1,9.39-1.92,27.73,27.73,0,0,1,5.95.64A24.68,24.68,0,0,1,155.55,89l.16.23a28.44,28.44,0,0,0-1,6.27l-.16.18h-1.06l-.18-.18-.23-3.85a12.27,12.27,0,0,0-4-2.05,16.2,16.2,0,0,0-4.88-.73,14.14,14.14,0,0,0-6.86,1.64,11.47,11.47,0,0,0-4.71,4.75,16,16,0,0,0-1.67,7.62,15.58,15.58,0,0,0,2,8,13.47,13.47,0,0,0,5.38,5.26,16.56,16.56,0,0,0,8,1.83,19.54,19.54,0,0,0,3.87-.38,14.53,14.53,0,0,0,3.09-1,13.53,13.53,0,0,0,2.37-1.38Z"/><path class="cls-1" d="M158.63,87.51c3.84.12,6,.18,6.47.18s2.67-.06,6.5-.18l.18.16V88.8l-.18.16c-1,0-1.84.07-2.41.13a2.94,2.94,0,0,0-1.23.34,1.6,1.6,0,0,0-.51,1.17,18.66,18.66,0,0,0-.13,2.55l0,5.2v3.17c3.3.1,6.44.14,9.39.14,4.05,0,7.13,0,9.24-.14V98.35l0-4.41a30.83,30.83,0,0,0-.14-3.33,2.28,2.28,0,0,0-.31-1,1.59,1.59,0,0,0-.82-.4,19,19,0,0,0-3-.25l-.16-.16V87.67l.16-.16c3.86.12,6,.18,6.49.18s2.69-.06,6.51-.18l.18.16V88.8l-.18.16c-1.06,0-1.87.07-2.44.13a2.94,2.94,0,0,0-1.23.34,1.56,1.56,0,0,0-.5,1.17,24.74,24.74,0,0,0-.14,2.55l0,5.2v10.49l0,4.42a30.42,30.42,0,0,0,.14,3.3,2,2,0,0,0,.33,1,1.76,1.76,0,0,0,.81.42,18.25,18.25,0,0,0,3,.26l.18.13v1.14l-.18.18q-5.81-.18-6.51-.18t-6.49.18l-.16-.18v-1.14l.16-.13a23.82,23.82,0,0,0,2.83-.23,2.1,2.1,0,0,0,.93-.35,2,2,0,0,0,.38-.92,17.94,17.94,0,0,0,.16-3.12l0-4.78v-5.16q-6.71-.14-9.39-.14c-1.85,0-4.92,0-9.24.14v5.16l0,4.42a30.42,30.42,0,0,0,.14,3.3,2.14,2.14,0,0,0,.32,1,1.86,1.86,0,0,0,.83.42,18.3,18.3,0,0,0,3,.26l.18.13v1.14l-.18.18c-3.85-.12-6-.18-6.5-.18s-2.63.06-6.47.18l-.18-.18v-1.14l.18-.13a23.11,23.11,0,0,0,2.8-.23,2.16,2.16,0,0,0,.95-.35,1.86,1.86,0,0,0,.38-.92,21.27,21.27,0,0,0,.17-3.12l0-4.78V98.35l0-4.41c0-1.72-.06-2.83-.13-3.33a2,2,0,0,0-.32-1,1.59,1.59,0,0,0-.82-.4,18.77,18.77,0,0,0-3-.25l-.18-.16V87.67Z"/><path class="cls-1" d="M196.87,119.69l-.2-.18v-1.18l.2-.18A10.55,10.55,0,0,0,199,118a1.86,1.86,0,0,0,.85-.59,19.37,19.37,0,0,0,1.51-2.89l2.38-5.16,6.16-14c1.16-2.73,2.31-5.47,3.46-8.2h1.47l9.67,22.74,1.29,3c.38.86.81,1.8,1.3,2.81a8.51,8.51,0,0,0,1,1.79,2,2,0,0,0,.7.42,8.34,8.34,0,0,0,1.87.17l.18.18v1.18l-.18.18q-2.4-.21-4.32-.21l-7.52.21-.18-.18v-1.18l.18-.18a17.3,17.3,0,0,0,3.17-.22.75.75,0,0,0,.63-.78,3.83,3.83,0,0,0-.31-1.31l-2.79-6.91H206.43l-2.47,5.8a6.7,6.7,0,0,0-.65,2.28.88.88,0,0,0,.61.84,10.44,10.44,0,0,0,3.08.3l.2.18v1.18l-.18.18c-2-.12-3.65-.18-5.12-.18C200.24,119.51,198.57,119.57,196.87,119.69ZM207.2,107h11.46L213,93.33Z"/><path class="cls-1" d="M232.79,87.67l.18-.16c3.75.12,5.9.18,6.48.18s2.68-.06,6.5-.18l.18.16V88.8L246,89c-1,0-1.85.07-2.42.13a3,3,0,0,0-1.23.34,1.6,1.6,0,0,0-.51,1.17,20.8,20.8,0,0,0-.12,2.55l0,5.2v10c0,2.51,0,4.26,0,5.26l.11,3.92h4.62q5.52,0,6.89-.14a9.14,9.14,0,0,0,2.64-.66,17.37,17.37,0,0,0,.72-2.6c.31-1.36.47-2.14.48-2.36l.21-.18h1.11l.16.18a32.56,32.56,0,0,0-.38,3.51c-.13,1.74-.19,3.14-.19,4.22l-.18.18q-4.31-.14-11.3-.14l-6.61,0c-1.52,0-3,.06-4.62.18l-.19-.18v-.75l.19-.23a10.94,10.94,0,0,0,1.54-.88,14.94,14.94,0,0,0,.28-2.92c.1-1.85.15-4.06.15-6.66V98.35l-.05-4.41q0-2.58-.12-3.33a2.14,2.14,0,0,0-.32-1,1.63,1.63,0,0,0-.83-.4,18.77,18.77,0,0,0-3-.25l-.18-.16Z"/><path class="cls-1" d="M261.93,87.67l.19-.16c5.17.09,8.49.13,9.94.13q7.43,0,13.22-.13l.12.16a38.18,38.18,0,0,0-.84,6.81l-.14.18h-1.11l-.2-.18c0-.13,0-.25,0-.36a22.74,22.74,0,0,0-.29-3.67,12.24,12.24,0,0,0-4-.82c-1.68-.13-2.94-.2-3.79-.2-1.19,0-2.72.09-4.57.25l-.09,3.63-.07,4.14-.07,4.6c1.63.09,3.13.13,4.51.13s2.55,0,3.48-.13a5.73,5.73,0,0,0,1.65-.29,1,1,0,0,0,.36-.56,9.05,9.05,0,0,0,.21-1.49l.09-1.4.18-.18h1.05l.18.18c0,1.65-.07,3.3-.12,5l.12,5.09-.18.19h-1.05l-.18-.19-.16-1.35a18.57,18.57,0,0,0-.29-1.9,1,1,0,0,0-.42-.53,4.54,4.54,0,0,0-1.68-.36c-.91-.09-2.16-.14-3.74-.14-.88,0-2.21,0-4,.12-.08,1.27-.11,3.38-.11,6.34,0,3.17,0,5.5.11,7h4.17c3.66,0,6-.05,6.88-.14a9,9,0,0,0,2.63-.66c.13-.35.36-1.15.67-2.41s.48-2,.53-2.37l.23-.15h1.08l.18.15a33.33,33.33,0,0,0-.4,3.4c-.12,1.62-.19,3-.19,4.15l-.16.18q-4.32-.14-11.32-.14l-6.16,0c-1.43,0-2.93.06-4.48.18l-.18-.18v-.75l.18-.23a12.43,12.43,0,0,0,1.53-.85,17.84,17.84,0,0,0,.32-4q.12-3.8.12-5.79V99.62l0-5.14c0-1.11,0-2,0-2.73a7.94,7.94,0,0,0-.16-1.5,1.64,1.64,0,0,0-.26-.64,1,1,0,0,0-.47-.3,5.42,5.42,0,0,0-1.12-.22L262.12,89l-.19-.16Z"/><path class="cls-1" d="M289.56,87.67l.18-.16c2.76.12,4.92.18,6.46.18q2.55,0,6.9-.16c1.07,0,1.85,0,2.33,0q5.73,0,7.77,2.08a6.81,6.81,0,0,1,2,4.93,7.69,7.69,0,0,1-1,3.74,8.77,8.77,0,0,1-2.94,3.14,14.71,14.71,0,0,1-5.37,2c.43.59,1.19,1.6,2.29,3l3.22,4.26q1.56,2.11,3.35,4.45a14.09,14.09,0,0,0,2.31,2.65,2.72,2.72,0,0,0,.89.37,6.86,6.86,0,0,0,1.19.07l.18.18v1.07l-.2.2a21.5,21.5,0,0,0-2.58-.13c-1.08,0-2.24,0-3.51.13-1.05-1.27-2.68-3.46-4.92-6.59q-3.9-5.43-8-10.08l.23-.7c.78,0,1.4.07,1.83.07a9.23,9.23,0,0,0,6.14-1.88,6.46,6.46,0,0,0,2.22-5.21,5.32,5.32,0,0,0-2-4.51,8.6,8.6,0,0,0-5.38-1.53,15,15,0,0,0-4.49.65c-.23.33-.34,3.17-.34,8.49v10.49l0,4.42a28.76,28.76,0,0,0,.13,3.3,2.24,2.24,0,0,0,.33,1,1.8,1.8,0,0,0,.83.42,18.17,18.17,0,0,0,3,.26l.18.13v1.14l-.18.18-4-.14c-1.07,0-1.91,0-2.51,0s-2.63.06-6.48.18l-.18-.18v-1.14l.18-.13a23.35,23.35,0,0,0,2.81-.23,2.1,2.1,0,0,0,.94-.35,1.69,1.69,0,0,0,.38-.92,19.87,19.87,0,0,0,.17-3.12l0-4.78V98.35L294,93.94a33,33,0,0,0-.12-3.33,2.14,2.14,0,0,0-.32-1,1.63,1.63,0,0,0-.83-.4,18.64,18.64,0,0,0-3-.25l-.18-.16Z"/><path class="cls-1" d="M362.18,87.58l.21.18v1.11l-.18.15a16.81,16.81,0,0,0-3.09.25,1.39,1.39,0,0,0-.85.6,3.88,3.88,0,0,0-.29,1.65q0,1.22-.12,6.9v10.44c0,1.51,0,3.22.07,5.12a13.92,13.92,0,0,0,.28,3.32,1.33,1.33,0,0,0,.78.68,14.93,14.93,0,0,0,3.22.28l.18.16v1.11l-.21.18c-2.46-.14-4.6-.2-6.43-.2-1.24,0-3.34.06-6.31.2l-.21-.18v-1.09l.18-.18a17,17,0,0,0,3.09-.25,1.38,1.38,0,0,0,.85-.6,3.86,3.86,0,0,0,.3-1.66q0-1.25.11-6.89V92.24L346,108.59q-3,6.14-5.14,11.55h-.89c-.84-2-1.54-3.5-2.08-4.67L327,93v15.83c0,1.48,0,3.18.05,5.1a13.06,13.06,0,0,0,.29,3.34,1.38,1.38,0,0,0,.79.68,13.2,13.2,0,0,0,3.21.27l.19.18v1.09l-.21.21-1.45-.07c-1.49-.08-2.78-.11-3.85-.11-.48,0-2.29.06-5.41.18l-.18-.18v-1.09l.18-.21a16,16,0,0,0,3.08-.22,1.49,1.49,0,0,0,.85-.61,3.69,3.69,0,0,0,.29-1.61c0-.79.06-3.1.11-7V98.45c0-1.38,0-3-.06-5a14.88,14.88,0,0,0-.27-3.42,1.41,1.41,0,0,0-.78-.69,13.31,13.31,0,0,0-3.22-.27l-.18-.18V87.78l.2-.2c1.05.07,2.45.11,4.21.11s3.12,0,4.35-.11q1.91,4.38,3.65,7.94l8.58,17.62L349.18,97q3.15-6.56,4.24-9.42c1.45.07,2.88.11,4.28.11S360.46,87.65,362.18,87.58Z"/><polygon class="cls-2" points="182.62 4.55 173.54 32.5 144.15 32.5 167.93 49.77 158.84 77.72 182.62 60.44 206.39 77.72 197.31 49.77 221.09 32.5 191.7 32.5 182.62 4.55"/><polygon class="cls-1" points="182.62 4.55 173.54 32.5 182.62 45 182.62 4.55"/><polygon class="cls-1" points="144.15 32.5 167.93 49.77 182.62 45 144.15 32.5"/><polygon class="cls-1" points="158.84 77.72 182.62 60.44 182.62 45 158.84 77.72"/><polygon class="cls-1" points="206.39 77.72 197.31 49.77 182.62 45 206.39 77.72"/><polygon class="cls-1" points="221.09 32.5 191.7 32.5 182.62 45 221.09 32.5"/></svg>